<svg xmlns="http://www.w3.org/2000/svg" width="40" height="40" viewBox="0 0 40 40" fill="none">
<path d="M 22.00 10.00 L 21.00 11.00 L 23.00 13.00 L 23.00 12.00 L 22.00 11.00 Z M 36.00 22.00 L 34.00 20.00 L 35.00 19.00 L 34.00 18.00 L 32.00 18.00 L 30.00 20.00 L 27.00 17.00 L 28.00 16.00 L 27.00 16.00 L 26.00 15.00 L 26.00 12.00 L 25.00 12.00 L 25.00 14.00 L 26.00 15.00 L 26.00 16.00 L 25.00 17.00 L 23.00 15.00 L 22.00 15.00 L 20.00 13.00 L 19.00 13.00 L 18.00 14.00 L 16.00 14.00 L 15.00 15.00 L 14.00 14.00 L 14.00 13.00 L 17.00 10.00 L 19.00 10.00 L 19.00 9.00 L 20.00 8.00 L 23.00 8.00 L 25.00 10.00 L 25.00 9.00 L 24.00 8.00 L 23.00 8.00 L 22.00 7.00 L 21.00 8.00 L 20.00 8.00 L 19.00 9.00 L 17.00 9.00 L 13.00 13.00 L 13.00 17.00 L 12.00 18.00 L 11.00 17.00 L 9.00 19.00 L 7.00 17.00 L 5.00 17.00 L 4.00 18.00 L 4.00 21.00 L 3.00 22.00 L 3.00 23.00 L 4.00 24.00 L 3.00 25.00 L 5.00 25.00 L 6.00 24.00 L 7.00 25.00 L 7.00 28.00 L 8.00 28.00 L 8.00 26.00 L 9.00 25.00 L 10.00 25.00 L 11.00 26.00 L 11.00 30.00 L 12.00 30.00 L 11.00 29.00 L 12.00 28.00 L 12.00 26.00 L 14.00 24.00 L 16.00 24.00 L 17.00 25.00 L 21.00 25.00 L 22.00 24.00 L 23.00 24.00 L 25.00 26.00 L 25.00 27.00 L 26.00 28.00 L 26.00 30.00 L 26.00 27.00 L 27.00 26.00 L 30.00 26.00 L 31.00 27.00 L 31.00 29.00 L 31.00 26.00 L 32.00 25.00 L 36.00 25.00 Z M 28.00 24.00 L 29.00 23.00 L 30.00 23.00 L 31.00 24.00 L 30.00 25.00 L 29.00 25.00 Z M 32.00 23.00 L 33.00 22.00 L 34.00 23.00 L 33.00 24.00 Z M 17.00 23.00 L 18.00 22.00 L 19.00 22.00 L 20.00 23.00 L 20.00 24.00 L 19.00 25.00 L 18.00 25.00 L 17.00 24.00 Z M 13.00 23.00 L 14.00 22.00 L 15.00 23.00 L 14.00 24.00 Z M 33.00 22.00 L 34.00 21.00 L 35.00 22.00 L 34.00 23.00 Z M 26.00 22.00 L 27.00 21.00 L 28.00 22.00 L 27.00 23.00 Z M 14.00 21.00 L 15.00 20.00 L 17.00 22.00 L 16.00 23.00 L 15.00 23.00 L 14.00 22.00 Z M 10.00 21.00 L 11.00 20.00 L 12.00 21.00 L 11.00 22.00 Z M 6.00 21.00 L 7.00 20.00 L 8.00 21.00 L 8.00 22.00 L 9.00 23.00 L 8.00 24.00 L 7.00 24.00 L 6.00 23.00 Z M 25.00 20.00 L 26.00 19.00 L 27.00 20.00 L 26.00 21.00 Z M 32.00 19.00 L 33.00 18.00 L 34.00 19.00 L 33.00 20.00 Z M 14.00 18.00 L 15.00 19.00 L 15.00 20.00 L 14.00 21.00 L 13.00 21.00 L 12.00 20.00 Z M 7.00 19.00 L 8.00 18.00 L 9.00 19.00 L 8.00 20.00 Z M 25.00 17.00 L 26.00 18.00 L 25.00 19.00 L 25.00 23.00 L 24.00 24.00 L 23.00 24.00 L 21.00 22.00 L 21.00 21.00 L 22.00 20.00 L 22.00 19.00 L 24.00 17.00 Z M 12.00 18.00 L 13.00 17.00 L 14.00 18.00 L 13.00 19.00 Z M 10.00 18.00 L 11.00 17.00 L 12.00 18.00 L 11.00 19.00 Z M 21.00 15.00 L 22.00 16.00 L 22.00 19.00 L 20.00 21.00 L 18.00 19.00 L 20.00 17.00 L 20.00 16.00 Z M 20.00 14.00 L 21.00 15.00 L 20.00 16.00 L 20.00 17.00 L 18.00 19.00 L 20.00 21.00 L 19.00 22.00 L 18.00 22.00 L 15.00 19.00 L 15.00 16.00 L 16.00 15.00 L 17.00 16.00 L 17.00 17.00 L 17.00 16.00 L 19.00 14.00 Z" fill="#333333" fill-rule="evenodd"/>
<path d="M 17.00 28.00 L 17.00 30.00 L 18.00 31.00 L 20.00 31.00 L 20.00 30.00 L 21.00 29.00 L 20.00 28.00 Z M 18.00 30.00 L 19.00 29.00 L 20.00 30.00 L 19.00 31.00 Z M 17.00 29.00 L 18.00 28.00 L 19.00 29.00 L 18.00 30.00 Z M 20.00 9.00 L 20.00 10.00 L 21.00 10.00 Z" fill="#f06aa6" fill-rule="evenodd"/>
<path d="M 34.00 22.00 L 33.00 23.00 Z M 7.00 21.00 L 7.00 23.00 L 8.00 23.00 L 7.00 22.00 Z M 3.00 20.00 L 3.00 21.00 Z M 18.00 18.00 L 19.00 19.00 L 18.00 20.00 L 18.00 21.00 L 19.00 21.00 L 18.00 20.00 L 19.00 19.00 Z M 25.00 11.00 L 26.00 11.00 Z" fill="#78cbe6" fill-rule="evenodd"/>
</svg>