<svg xmlns="http://www.w3.org/2000/svg" width="40" height="40" viewBox="0 0 40 40" fill="none">
<path d="M 24.00 30.00 L 32.00 30.00 L 33.00 31.00 L 34.00 31.00 L 33.00 31.00 L 32.00 30.00 L 33.00 29.00 L 32.00 29.00 L 31.00 30.00 L 30.00 29.00 L 29.00 30.00 L 26.00 30.00 L 25.00 29.00 Z M 20.00 27.00 L 21.00 28.00 Z M 35.00 20.00 L 35.00 21.00 L 34.00 22.00 L 34.00 25.00 L 35.00 25.00 L 35.00 24.00 L 34.00 23.00 L 35.00 22.00 Z M 6.00 27.00 L 8.00 27.00 L 9.00 26.00 L 10.00 26.00 L 11.00 25.00 L 12.00 25.00 L 13.00 26.00 L 15.00 26.00 L 16.00 25.00 L 18.00 25.00 L 20.00 23.00 L 21.00 23.00 L 23.00 21.00 L 23.00 19.00 L 24.00 18.00 L 24.00 16.00 L 25.00 15.00 L 27.00 15.00 L 28.00 14.00 L 29.00 15.00 L 29.00 14.00 L 24.00 14.00 L 23.00 13.00 L 23.00 12.00 L 20.00 9.00 L 19.00 9.00 L 18.00 8.00 L 10.00 8.00 L 9.00 9.00 L 8.00 9.00 L 6.00 11.00 L 6.00 12.00 L 5.00 13.00 L 5.00 14.00 L 4.00 15.00 L 4.00 16.00 L 5.00 15.00 L 5.00 14.00 L 7.00 12.00 L 7.00 11.00 L 8.00 10.00 L 9.00 10.00 L 10.00 9.00 L 11.00 9.00 L 12.00 8.00 L 16.00 8.00 L 17.00 9.00 L 18.00 9.00 L 19.00 10.00 L 20.00 10.00 L 22.00 12.00 L 22.00 13.00 L 23.00 14.00 L 23.00 19.00 L 22.00 20.00 L 22.00 21.00 L 19.00 24.00 L 17.00 24.00 L 16.00 25.00 L 15.00 25.00 L 14.00 26.00 L 13.00 25.00 L 9.00 25.00 L 8.00 24.00 L 8.00 23.00 L 6.00 21.00 L 6.00 20.00 L 5.00 19.00 L 5.00 18.00 L 5.00 20.00 L 6.00 21.00 L 6.00 22.00 L 8.00 24.00 L 7.00 25.00 L 7.00 26.00 Z M 23.00 15.00 L 24.00 14.00 L 25.00 15.00 L 24.00 16.00 Z" fill="#333333" fill-rule="evenodd"/>
<path d="M 28.00 22.00 L 28.00 23.00 L 29.00 22.00 L 30.00 23.00 L 31.00 23.00 L 31.00 22.00 Z M 25.00 22.00 L 25.00 23.00 L 26.00 23.00 L 26.00 22.00 Z M 19.00 15.00 L 18.00 15.00 L 17.00 14.00 L 16.00 14.00 L 15.00 13.00 L 15.00 12.00 L 14.00 12.00 L 11.00 15.00 L 9.00 15.00 L 9.00 16.00 L 11.00 18.00 L 11.00 21.00 L 12.00 21.00 L 13.00 20.00 L 15.00 20.00 L 16.00 21.00 L 17.00 21.00 L 17.00 18.00 L 19.00 16.00 Z M 15.00 19.00 L 16.00 18.00 L 17.00 19.00 L 16.00 20.00 Z M 14.00 13.00 L 16.00 15.00 L 17.00 15.00 L 18.00 16.00 L 17.00 17.00 L 16.00 17.00 L 16.00 18.00 L 15.00 19.00 L 14.00 19.00 L 13.00 20.00 L 12.00 20.00 L 11.00 19.00 L 12.00 18.00 L 12.00 17.00 L 11.00 17.00 L 10.00 16.00 L 11.00 15.00 L 12.00 15.00 Z" fill="#f06aa6" fill-rule="evenodd"/>
<path d="M 33.00 30.00 L 32.00 31.00 Z M 34.00 26.00 L 33.00 26.00 L 33.00 27.00 L 32.00 28.00 L 33.00 28.00 L 34.00 27.00 Z M 20.00 24.00 L 19.00 25.00 L 22.00 28.00 L 22.00 29.00 L 24.00 29.00 L 23.00 29.00 L 20.00 26.00 Z M 5.00 16.00 L 4.00 17.00 L 4.00 18.00 L 5.00 17.00 Z M 30.00 15.00 L 31.00 16.00 L 32.00 16.00 L 33.00 17.00 L 33.00 18.00 L 34.00 19.00 L 34.00 21.00 L 34.00 18.00 L 31.00 15.00 Z" fill="#78cbe6" fill-rule="evenodd"/>
</svg>