<svg xmlns="http://www.w3.org/2000/svg" xmlns:xlink="http://www.w3.org/1999/xlink" width="1080" zoomAndPan="magnify" viewBox="0 0 810 817.92" height="1080" preserveAspectRatio="xMidYMid meet" version="1.0"><defs><g/></defs><g fill="#000000" fill-opacity="1"><g transform="translate(382.212219, 323.520355)"><g><path d="M 3.8125 -5.5625 C 4.425781 -5.5625 4.921875 -5.320312 5.296875 -4.84375 C 5.679688 -4.363281 5.875 -3.660156 5.875 -2.734375 C 5.875 -1.804688 5.675781 -1.101562 5.28125 -0.625 C 4.894531 -0.144531 4.394531 0.09375 3.78125 0.09375 C 3.382812 0.09375 3.066406 0.0234375 2.828125 -0.109375 C 2.597656 -0.253906 2.410156 -0.414062 2.265625 -0.59375 L 2.1875 -0.59375 C 2.238281 -0.320312 2.265625 -0.0546875 2.265625 0.203125 L 2.265625 2.40625 L 0.78125 2.40625 L 0.78125 -5.453125 L 1.984375 -5.453125 L 2.203125 -4.75 L 2.265625 -4.75 C 2.410156 -4.96875 2.609375 -5.15625 2.859375 -5.3125 C 3.109375 -5.476562 3.425781 -5.5625 3.8125 -5.5625 Z M 3.34375 -4.375 C 2.957031 -4.375 2.679688 -4.25 2.515625 -4 C 2.359375 -3.757812 2.273438 -3.394531 2.265625 -2.90625 L 2.265625 -2.75 C 2.265625 -2.21875 2.34375 -1.8125 2.5 -1.53125 C 2.65625 -1.25 2.941406 -1.109375 3.359375 -1.109375 C 3.703125 -1.109375 3.953125 -1.25 4.109375 -1.53125 C 4.273438 -1.8125 4.359375 -2.222656 4.359375 -2.765625 C 4.359375 -3.835938 4.019531 -4.375 3.34375 -4.375 Z M 3.34375 -4.375 "/></g></g></g><g fill="#000000" fill-opacity="1"><g transform="translate(388.939061, 323.520355)"><g><path d="M 3.828125 -5.5625 C 3.898438 -5.5625 3.984375 -5.554688 4.078125 -5.546875 C 4.179688 -5.546875 4.265625 -5.535156 4.328125 -5.515625 L 4.21875 -4.125 C 4.164062 -4.132812 4.09375 -4.144531 4 -4.15625 C 3.914062 -4.164062 3.84375 -4.171875 3.78125 -4.171875 C 3.53125 -4.171875 3.285156 -4.125 3.046875 -4.03125 C 2.816406 -3.945312 2.628906 -3.800781 2.484375 -3.59375 C 2.335938 -3.394531 2.265625 -3.125 2.265625 -2.78125 L 2.265625 0 L 0.78125 0 L 0.78125 -5.453125 L 1.90625 -5.453125 L 2.125 -4.546875 L 2.203125 -4.546875 C 2.359375 -4.816406 2.578125 -5.050781 2.859375 -5.25 C 3.140625 -5.457031 3.460938 -5.5625 3.828125 -5.5625 Z M 3.828125 -5.5625 "/></g></g></g><g fill="#000000" fill-opacity="1"><g transform="translate(393.676852, 323.520355)"><g><path d="M 5.734375 -2.734375 C 5.734375 -1.828125 5.492188 -1.128906 5.015625 -0.640625 C 4.546875 -0.148438 3.898438 0.09375 3.078125 0.09375 C 2.566406 0.09375 2.113281 -0.015625 1.71875 -0.234375 C 1.320312 -0.453125 1.007812 -0.769531 0.78125 -1.1875 C 0.5625 -1.613281 0.453125 -2.128906 0.453125 -2.734375 C 0.453125 -3.640625 0.6875 -4.335938 1.15625 -4.828125 C 1.632812 -5.316406 2.285156 -5.5625 3.109375 -5.5625 C 3.617188 -5.5625 4.070312 -5.453125 4.46875 -5.234375 C 4.863281 -5.015625 5.171875 -4.691406 5.390625 -4.265625 C 5.617188 -3.847656 5.734375 -3.335938 5.734375 -2.734375 Z M 1.96875 -2.734375 C 1.96875 -2.203125 2.054688 -1.796875 2.234375 -1.515625 C 2.410156 -1.234375 2.695312 -1.09375 3.09375 -1.09375 C 3.488281 -1.09375 3.773438 -1.234375 3.953125 -1.515625 C 4.128906 -1.796875 4.21875 -2.203125 4.21875 -2.734375 C 4.21875 -3.273438 4.128906 -3.679688 3.953125 -3.953125 C 3.773438 -4.222656 3.488281 -4.359375 3.09375 -4.359375 C 2.695312 -4.359375 2.410156 -4.222656 2.234375 -3.953125 C 2.054688 -3.679688 1.96875 -3.273438 1.96875 -2.734375 Z M 1.96875 -2.734375 "/></g></g></g><g fill="#000000" fill-opacity="1"><g transform="translate(400.263759, 323.520355)"><g><path d="M 2.265625 -7.59375 L 2.265625 -5.828125 C 2.265625 -5.617188 2.257812 -5.414062 2.25 -5.21875 C 2.238281 -5.019531 2.222656 -4.863281 2.203125 -4.75 L 2.265625 -4.75 C 2.410156 -4.976562 2.609375 -5.171875 2.859375 -5.328125 C 3.109375 -5.484375 3.425781 -5.5625 3.8125 -5.5625 C 4.425781 -5.5625 4.921875 -5.320312 5.296875 -4.84375 C 5.679688 -4.363281 5.875 -3.660156 5.875 -2.734375 C 5.875 -1.804688 5.679688 -1.101562 5.296875 -0.625 C 4.910156 -0.144531 4.40625 0.09375 3.78125 0.09375 C 3.382812 0.09375 3.066406 0.0234375 2.828125 -0.109375 C 2.597656 -0.253906 2.410156 -0.414062 2.265625 -0.59375 L 2.171875 -0.59375 L 1.921875 0 L 0.78125 0 L 0.78125 -7.59375 Z M 3.34375 -4.375 C 2.957031 -4.375 2.679688 -4.25 2.515625 -4 C 2.359375 -3.757812 2.273438 -3.394531 2.265625 -2.90625 L 2.265625 -2.75 C 2.265625 -2.21875 2.34375 -1.8125 2.5 -1.53125 C 2.65625 -1.25 2.941406 -1.109375 3.359375 -1.109375 C 3.660156 -1.109375 3.898438 -1.25 4.078125 -1.53125 C 4.265625 -1.8125 4.359375 -2.222656 4.359375 -2.765625 C 4.359375 -3.296875 4.265625 -3.695312 4.078125 -3.96875 C 3.898438 -4.238281 3.65625 -4.375 3.34375 -4.375 Z M 3.34375 -4.375 "/></g></g></g><g fill="#000000" fill-opacity="1"><g transform="translate(406.990602, 323.520355)"><g><path d="M 1.34375 0 C 1.019531 0 0.773438 -0.078125 0.609375 -0.234375 C 0.453125 -0.398438 0.375 -0.617188 0.375 -0.890625 C 0.375 -1.191406 0.457031 -1.398438 0.625 -1.515625 C 0.800781 -1.628906 1.003906 -1.6875 1.234375 -1.6875 C 1.585938 -1.6875 1.851562 -1.609375 2.03125 -1.453125 C 2.207031 -1.296875 2.296875 -1.085938 2.296875 -0.828125 C 2.296875 -0.578125 2.207031 -0.375 2.03125 -0.21875 C 1.851562 -0.0703125 1.625 0 1.34375 0 Z M 1.34375 0 "/></g></g></g><g fill="#000000" fill-opacity="1"><g transform="translate(409.989278, 323.520355)"><g><path d="M 4.59375 -1.625 C 4.59375 -1.070312 4.394531 -0.644531 4 -0.34375 C 3.613281 -0.0507812 3.035156 0.09375 2.265625 0.09375 C 1.878906 0.09375 1.550781 0.0664062 1.28125 0.015625 C 1.007812 -0.0234375 0.734375 -0.101562 0.453125 -0.21875 L 0.453125 -1.453125 C 0.753906 -1.316406 1.070312 -1.203125 1.40625 -1.109375 C 1.75 -1.023438 2.050781 -0.984375 2.3125 -0.984375 C 2.59375 -0.984375 2.796875 -1.023438 2.921875 -1.109375 C 3.054688 -1.203125 3.125 -1.316406 3.125 -1.453125 C 3.125 -1.546875 3.097656 -1.628906 3.046875 -1.703125 C 2.992188 -1.773438 2.882812 -1.859375 2.71875 -1.953125 C 2.550781 -2.046875 2.289062 -2.164062 1.9375 -2.3125 C 1.59375 -2.46875 1.3125 -2.613281 1.09375 -2.75 C 0.875 -2.894531 0.710938 -3.066406 0.609375 -3.265625 C 0.503906 -3.472656 0.453125 -3.734375 0.453125 -4.046875 C 0.453125 -4.546875 0.644531 -4.921875 1.03125 -5.171875 C 1.425781 -5.429688 1.953125 -5.5625 2.609375 -5.5625 C 2.953125 -5.5625 3.273438 -5.523438 3.578125 -5.453125 C 3.890625 -5.390625 4.207031 -5.28125 4.53125 -5.125 L 4.078125 -4.0625 C 3.816406 -4.175781 3.5625 -4.269531 3.3125 -4.34375 C 3.070312 -4.414062 2.832031 -4.453125 2.59375 -4.453125 C 2.15625 -4.453125 1.9375 -4.332031 1.9375 -4.09375 C 1.9375 -4.007812 1.960938 -3.929688 2.015625 -3.859375 C 2.066406 -3.796875 2.175781 -3.722656 2.34375 -3.640625 C 2.507812 -3.554688 2.75 -3.445312 3.0625 -3.3125 C 3.382812 -3.1875 3.65625 -3.054688 3.875 -2.921875 C 4.101562 -2.785156 4.28125 -2.613281 4.40625 -2.40625 C 4.53125 -2.195312 4.59375 -1.9375 4.59375 -1.625 Z M 4.59375 -1.625 "/></g></g></g><g fill="#000000" fill-opacity="1"><g transform="translate(415.356787, 323.520355)"><g><path d="M 2.078125 0 L 0 -5.453125 L 1.5625 -5.453125 L 2.609375 -2.34375 C 2.671875 -2.15625 2.71875 -1.960938 2.75 -1.765625 C 2.78125 -1.566406 2.800781 -1.390625 2.8125 -1.234375 L 2.859375 -1.234375 C 2.878906 -1.585938 2.953125 -1.957031 3.078125 -2.34375 L 4.125 -5.453125 L 5.6875 -5.453125 L 3.609375 0 Z M 2.078125 0 "/></g></g></g><g fill="#000000" fill-opacity="1"><g transform="translate(421.443945, 323.520355)"><g><path d="M 2.546875 -5.5625 C 3.222656 -5.5625 3.75 -5.296875 4.125 -4.765625 L 4.171875 -4.765625 L 4.296875 -5.453125 L 5.546875 -5.453125 L 5.546875 0.015625 C 5.546875 0.796875 5.316406 1.390625 4.859375 1.796875 C 4.398438 2.203125 3.71875 2.40625 2.8125 2.40625 C 2.425781 2.40625 2.066406 2.378906 1.734375 2.328125 C 1.410156 2.285156 1.09375 2.203125 0.78125 2.078125 L 0.78125 0.890625 C 1.445312 1.171875 2.15625 1.3125 2.90625 1.3125 C 3.675781 1.3125 4.0625 0.894531 4.0625 0.0625 L 4.0625 -0.046875 C 4.0625 -0.148438 4.0625 -0.257812 4.0625 -0.375 C 4.070312 -0.5 4.082031 -0.609375 4.09375 -0.703125 L 4.0625 -0.703125 C 3.875 -0.421875 3.648438 -0.21875 3.390625 -0.09375 C 3.128906 0.03125 2.835938 0.09375 2.515625 0.09375 C 1.867188 0.09375 1.363281 -0.148438 1 -0.640625 C 0.632812 -1.140625 0.453125 -1.832031 0.453125 -2.71875 C 0.453125 -3.613281 0.632812 -4.3125 1 -4.8125 C 1.375 -5.3125 1.890625 -5.5625 2.546875 -5.5625 Z M 3.015625 -4.34375 C 2.316406 -4.34375 1.96875 -3.796875 1.96875 -2.703125 C 1.96875 -1.609375 2.328125 -1.0625 3.046875 -1.0625 C 3.421875 -1.0625 3.695312 -1.171875 3.875 -1.390625 C 4.0625 -1.609375 4.15625 -1.988281 4.15625 -2.53125 L 4.15625 -2.703125 C 4.15625 -3.296875 4.066406 -3.71875 3.890625 -3.96875 C 3.710938 -4.21875 3.421875 -4.34375 3.015625 -4.34375 Z M 3.015625 -4.34375 "/></g></g></g><g fill="#000000" fill-opacity="1"><g transform="translate(388.867817, 337.019034)"><g><path d="M 3.828125 -5.5625 C 3.898438 -5.5625 3.984375 -5.554688 4.078125 -5.546875 C 4.179688 -5.546875 4.265625 -5.535156 4.328125 -5.515625 L 4.21875 -4.125 C 4.164062 -4.132812 4.09375 -4.144531 4 -4.15625 C 3.914062 -4.164062 3.84375 -4.171875 3.78125 -4.171875 C 3.53125 -4.171875 3.285156 -4.125 3.046875 -4.03125 C 2.816406 -3.945312 2.628906 -3.800781 2.484375 -3.59375 C 2.335938 -3.394531 2.265625 -3.125 2.265625 -2.78125 L 2.265625 0 L 0.78125 0 L 0.78125 -5.453125 L 1.90625 -5.453125 L 2.125 -4.546875 L 2.203125 -4.546875 C 2.359375 -4.816406 2.578125 -5.050781 2.859375 -5.25 C 3.140625 -5.457031 3.460938 -5.5625 3.828125 -5.5625 Z M 3.828125 -5.5625 "/></g></g></g><g fill="#000000" fill-opacity="1"><g transform="translate(393.605608, 337.019034)"><g><path d="M 4.0625 2.40625 L 4.0625 0.109375 C 4.0625 -0.160156 4.082031 -0.429688 4.125 -0.703125 L 4.0625 -0.703125 C 3.914062 -0.484375 3.71875 -0.296875 3.46875 -0.140625 C 3.226562 0.015625 2.910156 0.09375 2.515625 0.09375 C 1.898438 0.09375 1.398438 -0.140625 1.015625 -0.609375 C 0.640625 -1.085938 0.453125 -1.789062 0.453125 -2.71875 C 0.453125 -3.65625 0.644531 -4.363281 1.03125 -4.84375 C 1.414062 -5.320312 1.921875 -5.5625 2.546875 -5.5625 C 2.941406 -5.5625 3.265625 -5.484375 3.515625 -5.328125 C 3.765625 -5.171875 3.96875 -4.984375 4.125 -4.765625 L 4.15625 -4.765625 L 4.296875 -5.453125 L 5.546875 -5.453125 L 5.546875 2.40625 Z M 3.046875 -1.0625 C 3.453125 -1.0625 3.734375 -1.179688 3.890625 -1.421875 C 4.054688 -1.671875 4.144531 -2.039062 4.15625 -2.53125 L 4.15625 -2.703125 C 4.15625 -3.234375 4.070312 -3.640625 3.90625 -3.921875 C 3.75 -4.203125 3.453125 -4.34375 3.015625 -4.34375 C 2.660156 -4.34375 2.394531 -4.203125 2.21875 -3.921875 C 2.050781 -3.640625 1.96875 -3.234375 1.96875 -2.703125 C 1.96875 -1.609375 2.328125 -1.0625 3.046875 -1.0625 Z M 3.046875 -1.0625 "/></g></g></g><g fill="#000000" fill-opacity="1"><g transform="translate(400.332451, 337.019034)"><g><path d="M 1.34375 0 C 1.019531 0 0.773438 -0.078125 0.609375 -0.234375 C 0.453125 -0.398438 0.375 -0.617188 0.375 -0.890625 C 0.375 -1.191406 0.457031 -1.398438 0.625 -1.515625 C 0.800781 -1.628906 1.003906 -1.6875 1.234375 -1.6875 C 1.585938 -1.6875 1.851562 -1.609375 2.03125 -1.453125 C 2.207031 -1.296875 2.296875 -1.085938 2.296875 -0.828125 C 2.296875 -0.578125 2.207031 -0.375 2.03125 -0.21875 C 1.851562 -0.0703125 1.625 0 1.34375 0 Z M 1.34375 0 "/></g></g></g><g fill="#000000" fill-opacity="1"><g transform="translate(403.331128, 337.019034)"><g><path d="M 4.59375 -1.625 C 4.59375 -1.070312 4.394531 -0.644531 4 -0.34375 C 3.613281 -0.0507812 3.035156 0.09375 2.265625 0.09375 C 1.878906 0.09375 1.550781 0.0664062 1.28125 0.015625 C 1.007812 -0.0234375 0.734375 -0.101562 0.453125 -0.21875 L 0.453125 -1.453125 C 0.753906 -1.316406 1.070312 -1.203125 1.40625 -1.109375 C 1.75 -1.023438 2.050781 -0.984375 2.3125 -0.984375 C 2.59375 -0.984375 2.796875 -1.023438 2.921875 -1.109375 C 3.054688 -1.203125 3.125 -1.316406 3.125 -1.453125 C 3.125 -1.546875 3.097656 -1.628906 3.046875 -1.703125 C 2.992188 -1.773438 2.882812 -1.859375 2.71875 -1.953125 C 2.550781 -2.046875 2.289062 -2.164062 1.9375 -2.3125 C 1.59375 -2.46875 1.3125 -2.613281 1.09375 -2.75 C 0.875 -2.894531 0.710938 -3.066406 0.609375 -3.265625 C 0.503906 -3.472656 0.453125 -3.734375 0.453125 -4.046875 C 0.453125 -4.546875 0.644531 -4.921875 1.03125 -5.171875 C 1.425781 -5.429688 1.953125 -5.5625 2.609375 -5.5625 C 2.953125 -5.5625 3.273438 -5.523438 3.578125 -5.453125 C 3.890625 -5.390625 4.207031 -5.28125 4.53125 -5.125 L 4.078125 -4.0625 C 3.816406 -4.175781 3.5625 -4.269531 3.3125 -4.34375 C 3.070312 -4.414062 2.832031 -4.453125 2.59375 -4.453125 C 2.15625 -4.453125 1.9375 -4.332031 1.9375 -4.09375 C 1.9375 -4.007812 1.960938 -3.929688 2.015625 -3.859375 C 2.066406 -3.796875 2.175781 -3.722656 2.34375 -3.640625 C 2.507812 -3.554688 2.75 -3.445312 3.0625 -3.3125 C 3.382812 -3.1875 3.65625 -3.054688 3.875 -2.921875 C 4.101562 -2.785156 4.28125 -2.613281 4.40625 -2.40625 C 4.53125 -2.195312 4.59375 -1.9375 4.59375 -1.625 Z M 4.59375 -1.625 "/></g></g></g><g fill="#000000" fill-opacity="1"><g transform="translate(408.698637, 337.019034)"><g><path d="M 2.078125 0 L 0 -5.453125 L 1.5625 -5.453125 L 2.609375 -2.34375 C 2.671875 -2.15625 2.71875 -1.960938 2.75 -1.765625 C 2.78125 -1.566406 2.800781 -1.390625 2.8125 -1.234375 L 2.859375 -1.234375 C 2.878906 -1.585938 2.953125 -1.957031 3.078125 -2.34375 L 4.125 -5.453125 L 5.6875 -5.453125 L 3.609375 0 Z M 2.078125 0 "/></g></g></g><g fill="#000000" fill-opacity="1"><g transform="translate(414.785795, 337.019034)"><g><path d="M 2.546875 -5.5625 C 3.222656 -5.5625 3.75 -5.296875 4.125 -4.765625 L 4.171875 -4.765625 L 4.296875 -5.453125 L 5.546875 -5.453125 L 5.546875 0.015625 C 5.546875 0.796875 5.316406 1.390625 4.859375 1.796875 C 4.398438 2.203125 3.71875 2.40625 2.8125 2.40625 C 2.425781 2.40625 2.066406 2.378906 1.734375 2.328125 C 1.410156 2.285156 1.09375 2.203125 0.78125 2.078125 L 0.78125 0.890625 C 1.445312 1.171875 2.15625 1.3125 2.90625 1.3125 C 3.675781 1.3125 4.0625 0.894531 4.0625 0.0625 L 4.0625 -0.046875 C 4.0625 -0.148438 4.0625 -0.257812 4.0625 -0.375 C 4.070312 -0.5 4.082031 -0.609375 4.09375 -0.703125 L 4.0625 -0.703125 C 3.875 -0.421875 3.648438 -0.21875 3.390625 -0.09375 C 3.128906 0.03125 2.835938 0.09375 2.515625 0.09375 C 1.867188 0.09375 1.363281 -0.148438 1 -0.640625 C 0.632812 -1.140625 0.453125 -1.832031 0.453125 -2.71875 C 0.453125 -3.613281 0.632812 -4.3125 1 -4.8125 C 1.375 -5.3125 1.890625 -5.5625 2.546875 -5.5625 Z M 3.015625 -4.34375 C 2.316406 -4.34375 1.96875 -3.796875 1.96875 -2.703125 C 1.96875 -1.609375 2.328125 -1.0625 3.046875 -1.0625 C 3.421875 -1.0625 3.695312 -1.171875 3.875 -1.390625 C 4.0625 -1.609375 4.15625 -1.988281 4.15625 -2.53125 L 4.15625 -2.703125 C 4.15625 -3.296875 4.066406 -3.71875 3.890625 -3.96875 C 3.710938 -4.21875 3.421875 -4.34375 3.015625 -4.34375 Z M 3.015625 -4.34375 "/></g></g></g><g fill="#000000" fill-opacity="1"><g transform="translate(384.532304, 350.517714)"><g><path d="M 3.015625 -5.5625 C 3.753906 -5.5625 4.316406 -5.40625 4.703125 -5.09375 C 5.097656 -4.78125 5.296875 -4.296875 5.296875 -3.640625 L 5.296875 0 L 4.25 0 L 3.953125 -0.734375 L 3.921875 -0.734375 C 3.679688 -0.441406 3.429688 -0.226562 3.171875 -0.09375 C 2.921875 0.03125 2.566406 0.09375 2.109375 0.09375 C 1.617188 0.09375 1.210938 -0.0390625 0.890625 -0.3125 C 0.578125 -0.59375 0.421875 -1.03125 0.421875 -1.625 C 0.421875 -2.207031 0.625 -2.632812 1.03125 -2.90625 C 1.4375 -3.175781 2.046875 -3.332031 2.859375 -3.375 L 3.8125 -3.40625 L 3.8125 -3.640625 C 3.8125 -3.921875 3.734375 -4.128906 3.578125 -4.265625 C 3.429688 -4.398438 3.222656 -4.46875 2.953125 -4.46875 C 2.691406 -4.46875 2.429688 -4.425781 2.171875 -4.34375 C 1.921875 -4.269531 1.671875 -4.175781 1.421875 -4.0625 L 0.9375 -5.078125 C 1.21875 -5.222656 1.535156 -5.335938 1.890625 -5.421875 C 2.253906 -5.515625 2.628906 -5.5625 3.015625 -5.5625 Z M 3.8125 -2.53125 L 3.234375 -2.515625 C 2.753906 -2.492188 2.421875 -2.40625 2.234375 -2.25 C 2.046875 -2.09375 1.953125 -1.882812 1.953125 -1.625 C 1.953125 -1.394531 2.015625 -1.226562 2.140625 -1.125 C 2.273438 -1.03125 2.453125 -0.984375 2.671875 -0.984375 C 2.992188 -0.984375 3.265625 -1.078125 3.484375 -1.265625 C 3.703125 -1.460938 3.8125 -1.734375 3.8125 -2.078125 Z M 3.8125 -2.53125 "/></g></g></g><g fill="#000000" fill-opacity="1"><g transform="translate(390.969285, 350.517714)"><g><path d="M 5.796875 -5.453125 L 5.796875 0 L 4.65625 0 L 4.453125 -0.703125 L 4.375 -0.703125 C 4.195312 -0.421875 3.957031 -0.21875 3.65625 -0.09375 C 3.351562 0.03125 3.03125 0.09375 2.6875 0.09375 C 2.101562 0.09375 1.632812 -0.0625 1.28125 -0.375 C 0.925781 -0.6875 0.75 -1.195312 0.75 -1.90625 L 0.75 -5.453125 L 2.234375 -5.453125 L 2.234375 -2.265625 C 2.234375 -1.878906 2.300781 -1.585938 2.4375 -1.390625 C 2.582031 -1.191406 2.8125 -1.09375 3.125 -1.09375 C 3.570312 -1.09375 3.878906 -1.242188 4.046875 -1.546875 C 4.210938 -1.859375 4.296875 -2.304688 4.296875 -2.890625 L 4.296875 -5.453125 Z M 5.796875 -5.453125 "/></g></g></g><g fill="#000000" fill-opacity="1"><g transform="translate(397.936006, 350.517714)"><g><path d="M 2.515625 0.09375 C 1.898438 0.09375 1.398438 -0.140625 1.015625 -0.609375 C 0.640625 -1.085938 0.453125 -1.789062 0.453125 -2.71875 C 0.453125 -3.65625 0.644531 -4.363281 1.03125 -4.84375 C 1.414062 -5.320312 1.921875 -5.5625 2.546875 -5.5625 C 2.941406 -5.5625 3.265625 -5.484375 3.515625 -5.328125 C 3.773438 -5.171875 3.976562 -4.984375 4.125 -4.765625 L 4.171875 -4.765625 C 4.148438 -4.867188 4.125 -5.019531 4.09375 -5.21875 C 4.070312 -5.425781 4.0625 -5.632812 4.0625 -5.84375 L 4.0625 -7.59375 L 5.546875 -7.59375 L 5.546875 0 L 4.40625 0 L 4.125 -0.703125 L 4.0625 -0.703125 C 3.914062 -0.484375 3.71875 -0.296875 3.46875 -0.140625 C 3.21875 0.015625 2.898438 0.09375 2.515625 0.09375 Z M 3.03125 -1.09375 C 3.4375 -1.09375 3.722656 -1.210938 3.890625 -1.453125 C 4.054688 -1.691406 4.144531 -2.054688 4.15625 -2.546875 L 4.15625 -2.703125 C 4.15625 -3.234375 4.070312 -3.640625 3.90625 -3.921875 C 3.75 -4.203125 3.453125 -4.34375 3.015625 -4.34375 C 2.679688 -4.34375 2.421875 -4.203125 2.234375 -3.921875 C 2.046875 -3.640625 1.953125 -3.234375 1.953125 -2.703125 C 1.953125 -2.171875 2.046875 -1.769531 2.234375 -1.5 C 2.421875 -1.226562 2.6875 -1.09375 3.03125 -1.09375 Z M 3.03125 -1.09375 "/></g></g></g><g fill="#000000" fill-opacity="1"><g transform="translate(404.662849, 350.517714)"><g><path d="M 1.34375 0 C 1.019531 0 0.773438 -0.078125 0.609375 -0.234375 C 0.453125 -0.398438 0.375 -0.617188 0.375 -0.890625 C 0.375 -1.191406 0.457031 -1.398438 0.625 -1.515625 C 0.800781 -1.628906 1.003906 -1.6875 1.234375 -1.6875 C 1.585938 -1.6875 1.851562 -1.609375 2.03125 -1.453125 C 2.207031 -1.296875 2.296875 -1.085938 2.296875 -0.828125 C 2.296875 -0.578125 2.207031 -0.375 2.03125 -0.21875 C 1.851562 -0.0703125 1.625 0 1.34375 0 Z M 1.34375 0 "/></g></g></g><g fill="#000000" fill-opacity="1"><g transform="translate(407.661526, 350.517714)"><g><path d="M 4.59375 -1.625 C 4.59375 -1.070312 4.394531 -0.644531 4 -0.34375 C 3.613281 -0.0507812 3.035156 0.09375 2.265625 0.09375 C 1.878906 0.09375 1.550781 0.0664062 1.28125 0.015625 C 1.007812 -0.0234375 0.734375 -0.101562 0.453125 -0.21875 L 0.453125 -1.453125 C 0.753906 -1.316406 1.070312 -1.203125 1.40625 -1.109375 C 1.75 -1.023438 2.050781 -0.984375 2.3125 -0.984375 C 2.59375 -0.984375 2.796875 -1.023438 2.921875 -1.109375 C 3.054688 -1.203125 3.125 -1.316406 3.125 -1.453125 C 3.125 -1.546875 3.097656 -1.628906 3.046875 -1.703125 C 2.992188 -1.773438 2.882812 -1.859375 2.71875 -1.953125 C 2.550781 -2.046875 2.289062 -2.164062 1.9375 -2.3125 C 1.59375 -2.46875 1.3125 -2.613281 1.09375 -2.75 C 0.875 -2.894531 0.710938 -3.066406 0.609375 -3.265625 C 0.503906 -3.472656 0.453125 -3.734375 0.453125 -4.046875 C 0.453125 -4.546875 0.644531 -4.921875 1.03125 -5.171875 C 1.425781 -5.429688 1.953125 -5.5625 2.609375 -5.5625 C 2.953125 -5.5625 3.273438 -5.523438 3.578125 -5.453125 C 3.890625 -5.390625 4.207031 -5.28125 4.53125 -5.125 L 4.078125 -4.0625 C 3.816406 -4.175781 3.5625 -4.269531 3.3125 -4.34375 C 3.070312 -4.414062 2.832031 -4.453125 2.59375 -4.453125 C 2.15625 -4.453125 1.9375 -4.332031 1.9375 -4.09375 C 1.9375 -4.007812 1.960938 -3.929688 2.015625 -3.859375 C 2.066406 -3.796875 2.175781 -3.722656 2.34375 -3.640625 C 2.507812 -3.554688 2.75 -3.445312 3.0625 -3.3125 C 3.382812 -3.1875 3.65625 -3.054688 3.875 -2.921875 C 4.101562 -2.785156 4.28125 -2.613281 4.40625 -2.40625 C 4.53125 -2.195312 4.59375 -1.9375 4.59375 -1.625 Z M 4.59375 -1.625 "/></g></g></g><g fill="#000000" fill-opacity="1"><g transform="translate(413.029035, 350.517714)"><g><path d="M 2.078125 0 L 0 -5.453125 L 1.5625 -5.453125 L 2.609375 -2.34375 C 2.671875 -2.15625 2.71875 -1.960938 2.75 -1.765625 C 2.78125 -1.566406 2.800781 -1.390625 2.8125 -1.234375 L 2.859375 -1.234375 C 2.878906 -1.585938 2.953125 -1.957031 3.078125 -2.34375 L 4.125 -5.453125 L 5.6875 -5.453125 L 3.609375 0 Z M 2.078125 0 "/></g></g></g><g fill="#000000" fill-opacity="1"><g transform="translate(419.116193, 350.517714)"><g><path d="M 2.546875 -5.5625 C 3.222656 -5.5625 3.75 -5.296875 4.125 -4.765625 L 4.171875 -4.765625 L 4.296875 -5.453125 L 5.546875 -5.453125 L 5.546875 0.015625 C 5.546875 0.796875 5.316406 1.390625 4.859375 1.796875 C 4.398438 2.203125 3.71875 2.40625 2.8125 2.40625 C 2.425781 2.40625 2.066406 2.378906 1.734375 2.328125 C 1.410156 2.285156 1.09375 2.203125 0.78125 2.078125 L 0.78125 0.890625 C 1.445312 1.171875 2.15625 1.3125 2.90625 1.3125 C 3.675781 1.3125 4.0625 0.894531 4.0625 0.0625 L 4.0625 -0.046875 C 4.0625 -0.148438 4.0625 -0.257812 4.0625 -0.375 C 4.070312 -0.5 4.082031 -0.609375 4.09375 -0.703125 L 4.0625 -0.703125 C 3.875 -0.421875 3.648438 -0.21875 3.390625 -0.09375 C 3.128906 0.03125 2.835938 0.09375 2.515625 0.09375 C 1.867188 0.09375 1.363281 -0.148438 1 -0.640625 C 0.632812 -1.140625 0.453125 -1.832031 0.453125 -2.71875 C 0.453125 -3.613281 0.632812 -4.3125 1 -4.8125 C 1.375 -5.3125 1.890625 -5.5625 2.546875 -5.5625 Z M 3.015625 -4.34375 C 2.316406 -4.34375 1.96875 -3.796875 1.96875 -2.703125 C 1.96875 -1.609375 2.328125 -1.0625 3.046875 -1.0625 C 3.421875 -1.0625 3.695312 -1.171875 3.875 -1.390625 C 4.0625 -1.609375 4.15625 -1.988281 4.15625 -2.53125 L 4.15625 -2.703125 C 4.15625 -3.296875 4.066406 -3.71875 3.890625 -3.96875 C 3.710938 -4.21875 3.421875 -4.34375 3.015625 -4.34375 Z M 3.015625 -4.34375 "/></g></g></g><g fill="#000000" fill-opacity="1"><g transform="translate(382.212219, 364.016393)"><g><path d="M 3.8125 -5.5625 C 4.425781 -5.5625 4.921875 -5.320312 5.296875 -4.84375 C 5.679688 -4.363281 5.875 -3.660156 5.875 -2.734375 C 5.875 -1.804688 5.675781 -1.101562 5.28125 -0.625 C 4.894531 -0.144531 4.394531 0.09375 3.78125 0.09375 C 3.382812 0.09375 3.066406 0.0234375 2.828125 -0.109375 C 2.597656 -0.253906 2.410156 -0.414062 2.265625 -0.59375 L 2.1875 -0.59375 C 2.238281 -0.320312 2.265625 -0.0546875 2.265625 0.203125 L 2.265625 2.40625 L 0.78125 2.40625 L 0.78125 -5.453125 L 1.984375 -5.453125 L 2.203125 -4.75 L 2.265625 -4.75 C 2.410156 -4.96875 2.609375 -5.15625 2.859375 -5.3125 C 3.109375 -5.476562 3.425781 -5.5625 3.8125 -5.5625 Z M 3.34375 -4.375 C 2.957031 -4.375 2.679688 -4.25 2.515625 -4 C 2.359375 -3.757812 2.273438 -3.394531 2.265625 -2.90625 L 2.265625 -2.75 C 2.265625 -2.21875 2.34375 -1.8125 2.5 -1.53125 C 2.65625 -1.25 2.941406 -1.109375 3.359375 -1.109375 C 3.703125 -1.109375 3.953125 -1.25 4.109375 -1.53125 C 4.273438 -1.8125 4.359375 -2.222656 4.359375 -2.765625 C 4.359375 -3.835938 4.019531 -4.375 3.34375 -4.375 Z M 3.34375 -4.375 "/></g></g></g><g fill="#000000" fill-opacity="1"><g transform="translate(388.939061, 364.016393)"><g><path d="M 3.828125 -5.5625 C 3.898438 -5.5625 3.984375 -5.554688 4.078125 -5.546875 C 4.179688 -5.546875 4.265625 -5.535156 4.328125 -5.515625 L 4.21875 -4.125 C 4.164062 -4.132812 4.09375 -4.144531 4 -4.15625 C 3.914062 -4.164062 3.84375 -4.171875 3.78125 -4.171875 C 3.53125 -4.171875 3.285156 -4.125 3.046875 -4.03125 C 2.816406 -3.945312 2.628906 -3.800781 2.484375 -3.59375 C 2.335938 -3.394531 2.265625 -3.125 2.265625 -2.78125 L 2.265625 0 L 0.78125 0 L 0.78125 -5.453125 L 1.90625 -5.453125 L 2.125 -4.546875 L 2.203125 -4.546875 C 2.359375 -4.816406 2.578125 -5.050781 2.859375 -5.25 C 3.140625 -5.457031 3.460938 -5.5625 3.828125 -5.5625 Z M 3.828125 -5.5625 "/></g></g></g><g fill="#000000" fill-opacity="1"><g transform="translate(393.676852, 364.016393)"><g><path d="M 5.734375 -2.734375 C 5.734375 -1.828125 5.492188 -1.128906 5.015625 -0.640625 C 4.546875 -0.148438 3.898438 0.09375 3.078125 0.09375 C 2.566406 0.09375 2.113281 -0.015625 1.71875 -0.234375 C 1.320312 -0.453125 1.007812 -0.769531 0.78125 -1.1875 C 0.5625 -1.613281 0.453125 -2.128906 0.453125 -2.734375 C 0.453125 -3.640625 0.6875 -4.335938 1.15625 -4.828125 C 1.632812 -5.316406 2.285156 -5.5625 3.109375 -5.5625 C 3.617188 -5.5625 4.070312 -5.453125 4.46875 -5.234375 C 4.863281 -5.015625 5.171875 -4.691406 5.390625 -4.265625 C 5.617188 -3.847656 5.734375 -3.335938 5.734375 -2.734375 Z M 1.96875 -2.734375 C 1.96875 -2.203125 2.054688 -1.796875 2.234375 -1.515625 C 2.410156 -1.234375 2.695312 -1.09375 3.09375 -1.09375 C 3.488281 -1.09375 3.773438 -1.234375 3.953125 -1.515625 C 4.128906 -1.796875 4.21875 -2.203125 4.21875 -2.734375 C 4.21875 -3.273438 4.128906 -3.679688 3.953125 -3.953125 C 3.773438 -4.222656 3.488281 -4.359375 3.09375 -4.359375 C 2.695312 -4.359375 2.410156 -4.222656 2.234375 -3.953125 C 2.054688 -3.679688 1.96875 -3.273438 1.96875 -2.734375 Z M 1.96875 -2.734375 "/></g></g></g><g fill="#000000" fill-opacity="1"><g transform="translate(400.263759, 364.016393)"><g><path d="M 2.515625 0.09375 C 1.898438 0.09375 1.398438 -0.140625 1.015625 -0.609375 C 0.640625 -1.085938 0.453125 -1.789062 0.453125 -2.71875 C 0.453125 -3.65625 0.644531 -4.363281 1.03125 -4.84375 C 1.414062 -5.320312 1.921875 -5.5625 2.546875 -5.5625 C 2.941406 -5.5625 3.265625 -5.484375 3.515625 -5.328125 C 3.773438 -5.171875 3.976562 -4.984375 4.125 -4.765625 L 4.171875 -4.765625 C 4.148438 -4.867188 4.125 -5.019531 4.09375 -5.21875 C 4.070312 -5.425781 4.0625 -5.632812 4.0625 -5.84375 L 4.0625 -7.59375 L 5.546875 -7.59375 L 5.546875 0 L 4.40625 0 L 4.125 -0.703125 L 4.0625 -0.703125 C 3.914062 -0.484375 3.71875 -0.296875 3.46875 -0.140625 C 3.21875 0.015625 2.898438 0.09375 2.515625 0.09375 Z M 3.03125 -1.09375 C 3.4375 -1.09375 3.722656 -1.210938 3.890625 -1.453125 C 4.054688 -1.691406 4.144531 -2.054688 4.15625 -2.546875 L 4.15625 -2.703125 C 4.15625 -3.234375 4.070312 -3.640625 3.90625 -3.921875 C 3.75 -4.203125 3.453125 -4.34375 3.015625 -4.34375 C 2.679688 -4.34375 2.421875 -4.203125 2.234375 -3.921875 C 2.046875 -3.640625 1.953125 -3.234375 1.953125 -2.703125 C 1.953125 -2.171875 2.046875 -1.769531 2.234375 -1.5 C 2.421875 -1.226562 2.6875 -1.09375 3.03125 -1.09375 Z M 3.03125 -1.09375 "/></g></g></g><g fill="#000000" fill-opacity="1"><g transform="translate(406.990602, 364.016393)"><g><path d="M 1.34375 0 C 1.019531 0 0.773438 -0.078125 0.609375 -0.234375 C 0.453125 -0.398438 0.375 -0.617188 0.375 -0.890625 C 0.375 -1.191406 0.457031 -1.398438 0.625 -1.515625 C 0.800781 -1.628906 1.003906 -1.6875 1.234375 -1.6875 C 1.585938 -1.6875 1.851562 -1.609375 2.03125 -1.453125 C 2.207031 -1.296875 2.296875 -1.085938 2.296875 -0.828125 C 2.296875 -0.578125 2.207031 -0.375 2.03125 -0.21875 C 1.851562 -0.0703125 1.625 0 1.34375 0 Z M 1.34375 0 "/></g></g></g><g fill="#000000" fill-opacity="1"><g transform="translate(409.989278, 364.016393)"><g><path d="M 4.59375 -1.625 C 4.59375 -1.070312 4.394531 -0.644531 4 -0.34375 C 3.613281 -0.0507812 3.035156 0.09375 2.265625 0.09375 C 1.878906 0.09375 1.550781 0.0664062 1.28125 0.015625 C 1.007812 -0.0234375 0.734375 -0.101562 0.453125 -0.21875 L 0.453125 -1.453125 C 0.753906 -1.316406 1.070312 -1.203125 1.40625 -1.109375 C 1.75 -1.023438 2.050781 -0.984375 2.3125 -0.984375 C 2.59375 -0.984375 2.796875 -1.023438 2.921875 -1.109375 C 3.054688 -1.203125 3.125 -1.316406 3.125 -1.453125 C 3.125 -1.546875 3.097656 -1.628906 3.046875 -1.703125 C 2.992188 -1.773438 2.882812 -1.859375 2.71875 -1.953125 C 2.550781 -2.046875 2.289062 -2.164062 1.9375 -2.3125 C 1.59375 -2.46875 1.3125 -2.613281 1.09375 -2.75 C 0.875 -2.894531 0.710938 -3.066406 0.609375 -3.265625 C 0.503906 -3.472656 0.453125 -3.734375 0.453125 -4.046875 C 0.453125 -4.546875 0.644531 -4.921875 1.03125 -5.171875 C 1.425781 -5.429688 1.953125 -5.5625 2.609375 -5.5625 C 2.953125 -5.5625 3.273438 -5.523438 3.578125 -5.453125 C 3.890625 -5.390625 4.207031 -5.28125 4.53125 -5.125 L 4.078125 -4.0625 C 3.816406 -4.175781 3.5625 -4.269531 3.3125 -4.34375 C 3.070312 -4.414062 2.832031 -4.453125 2.59375 -4.453125 C 2.15625 -4.453125 1.9375 -4.332031 1.9375 -4.09375 C 1.9375 -4.007812 1.960938 -3.929688 2.015625 -3.859375 C 2.066406 -3.796875 2.175781 -3.722656 2.34375 -3.640625 C 2.507812 -3.554688 2.75 -3.445312 3.0625 -3.3125 C 3.382812 -3.1875 3.65625 -3.054688 3.875 -2.921875 C 4.101562 -2.785156 4.28125 -2.613281 4.40625 -2.40625 C 4.53125 -2.195312 4.59375 -1.9375 4.59375 -1.625 Z M 4.59375 -1.625 "/></g></g></g><g fill="#000000" fill-opacity="1"><g transform="translate(415.356787, 364.016393)"><g><path d="M 2.078125 0 L 0 -5.453125 L 1.5625 -5.453125 L 2.609375 -2.34375 C 2.671875 -2.15625 2.71875 -1.960938 2.75 -1.765625 C 2.78125 -1.566406 2.800781 -1.390625 2.8125 -1.234375 L 2.859375 -1.234375 C 2.878906 -1.585938 2.953125 -1.957031 3.078125 -2.34375 L 4.125 -5.453125 L 5.6875 -5.453125 L 3.609375 0 Z M 2.078125 0 "/></g></g></g><g fill="#000000" fill-opacity="1"><g transform="translate(421.443945, 364.016393)"><g><path d="M 2.546875 -5.5625 C 3.222656 -5.5625 3.75 -5.296875 4.125 -4.765625 L 4.171875 -4.765625 L 4.296875 -5.453125 L 5.546875 -5.453125 L 5.546875 0.015625 C 5.546875 0.796875 5.316406 1.390625 4.859375 1.796875 C 4.398438 2.203125 3.71875 2.40625 2.8125 2.40625 C 2.425781 2.40625 2.066406 2.378906 1.734375 2.328125 C 1.410156 2.285156 1.09375 2.203125 0.78125 2.078125 L 0.78125 0.890625 C 1.445312 1.171875 2.15625 1.3125 2.90625 1.3125 C 3.675781 1.3125 4.0625 0.894531 4.0625 0.0625 L 4.0625 -0.046875 C 4.0625 -0.148438 4.0625 -0.257812 4.0625 -0.375 C 4.070312 -0.5 4.082031 -0.609375 4.09375 -0.703125 L 4.0625 -0.703125 C 3.875 -0.421875 3.648438 -0.21875 3.390625 -0.09375 C 3.128906 0.03125 2.835938 0.09375 2.515625 0.09375 C 1.867188 0.09375 1.363281 -0.148438 1 -0.640625 C 0.632812 -1.140625 0.453125 -1.832031 0.453125 -2.71875 C 0.453125 -3.613281 0.632812 -4.3125 1 -4.8125 C 1.375 -5.3125 1.890625 -5.5625 2.546875 -5.5625 Z M 3.015625 -4.34375 C 2.316406 -4.34375 1.96875 -3.796875 1.96875 -2.703125 C 1.96875 -1.609375 2.328125 -1.0625 3.046875 -1.0625 C 3.421875 -1.0625 3.695312 -1.171875 3.875 -1.390625 C 4.0625 -1.609375 4.15625 -1.988281 4.15625 -2.53125 L 4.15625 -2.703125 C 4.15625 -3.296875 4.066406 -3.71875 3.890625 -3.96875 C 3.710938 -4.21875 3.421875 -4.34375 3.015625 -4.34375 Z M 3.015625 -4.34375 "/></g></g></g><g fill="#000000" fill-opacity="1"><g transform="translate(386.395407, 377.515072)"><g><path d="M 3.828125 -5.5625 C 3.898438 -5.5625 3.984375 -5.554688 4.078125 -5.546875 C 4.179688 -5.546875 4.265625 -5.535156 4.328125 -5.515625 L 4.21875 -4.125 C 4.164062 -4.132812 4.09375 -4.144531 4 -4.15625 C 3.914062 -4.164062 3.84375 -4.171875 3.78125 -4.171875 C 3.53125 -4.171875 3.285156 -4.125 3.046875 -4.03125 C 2.816406 -3.945312 2.628906 -3.800781 2.484375 -3.59375 C 2.335938 -3.394531 2.265625 -3.125 2.265625 -2.78125 L 2.265625 0 L 0.78125 0 L 0.78125 -5.453125 L 1.90625 -5.453125 L 2.125 -4.546875 L 2.203125 -4.546875 C 2.359375 -4.816406 2.578125 -5.050781 2.859375 -5.25 C 3.140625 -5.457031 3.460938 -5.5625 3.828125 -5.5625 Z M 3.828125 -5.5625 "/></g></g></g><g fill="#000000" fill-opacity="1"><g transform="translate(391.133198, 377.515072)"><g><path d="M 3.03125 -5.5625 C 3.78125 -5.5625 4.375 -5.34375 4.8125 -4.90625 C 5.257812 -4.476562 5.484375 -3.867188 5.484375 -3.078125 L 5.484375 -2.359375 L 1.953125 -2.359375 C 1.972656 -1.941406 2.097656 -1.613281 2.328125 -1.375 C 2.566406 -1.132812 2.894531 -1.015625 3.3125 -1.015625 C 3.664062 -1.015625 3.984375 -1.046875 4.265625 -1.109375 C 4.554688 -1.179688 4.859375 -1.289062 5.171875 -1.4375 L 5.171875 -0.296875 C 4.898438 -0.160156 4.613281 -0.0625 4.3125 0 C 4.019531 0.0625 3.664062 0.09375 3.25 0.09375 C 2.707031 0.09375 2.222656 -0.00390625 1.796875 -0.203125 C 1.378906 -0.410156 1.050781 -0.71875 0.8125 -1.125 C 0.570312 -1.53125 0.453125 -2.050781 0.453125 -2.6875 C 0.453125 -3.320312 0.554688 -3.851562 0.765625 -4.28125 C 0.984375 -4.707031 1.285156 -5.023438 1.671875 -5.234375 C 2.066406 -5.453125 2.519531 -5.5625 3.03125 -5.5625 Z M 3.046875 -4.5 C 2.742188 -4.5 2.5 -4.40625 2.3125 -4.21875 C 2.132812 -4.03125 2.023438 -3.738281 1.984375 -3.34375 L 4.078125 -3.34375 C 4.066406 -3.675781 3.976562 -3.953125 3.8125 -4.171875 C 3.644531 -4.390625 3.390625 -4.5 3.046875 -4.5 Z M 3.046875 -4.5 "/></g></g></g><g fill="#000000" fill-opacity="1"><g transform="translate(397.440243, 377.515072)"><g><path d="M 4.59375 -1.625 C 4.59375 -1.070312 4.394531 -0.644531 4 -0.34375 C 3.613281 -0.0507812 3.035156 0.09375 2.265625 0.09375 C 1.878906 0.09375 1.550781 0.0664062 1.28125 0.015625 C 1.007812 -0.0234375 0.734375 -0.101562 0.453125 -0.21875 L 0.453125 -1.453125 C 0.753906 -1.316406 1.070312 -1.203125 1.40625 -1.109375 C 1.75 -1.023438 2.050781 -0.984375 2.3125 -0.984375 C 2.59375 -0.984375 2.796875 -1.023438 2.921875 -1.109375 C 3.054688 -1.203125 3.125 -1.316406 3.125 -1.453125 C 3.125 -1.546875 3.097656 -1.628906 3.046875 -1.703125 C 2.992188 -1.773438 2.882812 -1.859375 2.71875 -1.953125 C 2.550781 -2.046875 2.289062 -2.164062 1.9375 -2.3125 C 1.59375 -2.46875 1.3125 -2.613281 1.09375 -2.75 C 0.875 -2.894531 0.710938 -3.066406 0.609375 -3.265625 C 0.503906 -3.472656 0.453125 -3.734375 0.453125 -4.046875 C 0.453125 -4.546875 0.644531 -4.921875 1.03125 -5.171875 C 1.425781 -5.429688 1.953125 -5.5625 2.609375 -5.5625 C 2.953125 -5.5625 3.273438 -5.523438 3.578125 -5.453125 C 3.890625 -5.390625 4.207031 -5.28125 4.53125 -5.125 L 4.078125 -4.0625 C 3.816406 -4.175781 3.5625 -4.269531 3.3125 -4.34375 C 3.070312 -4.414062 2.832031 -4.453125 2.59375 -4.453125 C 2.15625 -4.453125 1.9375 -4.332031 1.9375 -4.09375 C 1.9375 -4.007812 1.960938 -3.929688 2.015625 -3.859375 C 2.066406 -3.796875 2.175781 -3.722656 2.34375 -3.640625 C 2.507812 -3.554688 2.75 -3.445312 3.0625 -3.3125 C 3.382812 -3.1875 3.65625 -3.054688 3.875 -2.921875 C 4.101562 -2.785156 4.28125 -2.613281 4.40625 -2.40625 C 4.53125 -2.195312 4.59375 -1.9375 4.59375 -1.625 Z M 4.59375 -1.625 "/></g></g></g><g fill="#000000" fill-opacity="1"><g transform="translate(402.807752, 377.515072)"><g><path d="M 1.34375 0 C 1.019531 0 0.773438 -0.078125 0.609375 -0.234375 C 0.453125 -0.398438 0.375 -0.617188 0.375 -0.890625 C 0.375 -1.191406 0.457031 -1.398438 0.625 -1.515625 C 0.800781 -1.628906 1.003906 -1.6875 1.234375 -1.6875 C 1.585938 -1.6875 1.851562 -1.609375 2.03125 -1.453125 C 2.207031 -1.296875 2.296875 -1.085938 2.296875 -0.828125 C 2.296875 -0.578125 2.207031 -0.375 2.03125 -0.21875 C 1.851562 -0.0703125 1.625 0 1.34375 0 Z M 1.34375 0 "/></g></g></g><g fill="#000000" fill-opacity="1"><g transform="translate(405.806429, 377.515072)"><g><path d="M 4.59375 -1.625 C 4.59375 -1.070312 4.394531 -0.644531 4 -0.34375 C 3.613281 -0.0507812 3.035156 0.09375 2.265625 0.09375 C 1.878906 0.09375 1.550781 0.0664062 1.28125 0.015625 C 1.007812 -0.0234375 0.734375 -0.101562 0.453125 -0.21875 L 0.453125 -1.453125 C 0.753906 -1.316406 1.070312 -1.203125 1.40625 -1.109375 C 1.75 -1.023438 2.050781 -0.984375 2.3125 -0.984375 C 2.59375 -0.984375 2.796875 -1.023438 2.921875 -1.109375 C 3.054688 -1.203125 3.125 -1.316406 3.125 -1.453125 C 3.125 -1.546875 3.097656 -1.628906 3.046875 -1.703125 C 2.992188 -1.773438 2.882812 -1.859375 2.71875 -1.953125 C 2.550781 -2.046875 2.289062 -2.164062 1.9375 -2.3125 C 1.59375 -2.46875 1.3125 -2.613281 1.09375 -2.75 C 0.875 -2.894531 0.710938 -3.066406 0.609375 -3.265625 C 0.503906 -3.472656 0.453125 -3.734375 0.453125 -4.046875 C 0.453125 -4.546875 0.644531 -4.921875 1.03125 -5.171875 C 1.425781 -5.429688 1.953125 -5.5625 2.609375 -5.5625 C 2.953125 -5.5625 3.273438 -5.523438 3.578125 -5.453125 C 3.890625 -5.390625 4.207031 -5.28125 4.53125 -5.125 L 4.078125 -4.0625 C 3.816406 -4.175781 3.5625 -4.269531 3.3125 -4.34375 C 3.070312 -4.414062 2.832031 -4.453125 2.59375 -4.453125 C 2.15625 -4.453125 1.9375 -4.332031 1.9375 -4.09375 C 1.9375 -4.007812 1.960938 -3.929688 2.015625 -3.859375 C 2.066406 -3.796875 2.175781 -3.722656 2.34375 -3.640625 C 2.507812 -3.554688 2.75 -3.445312 3.0625 -3.3125 C 3.382812 -3.1875 3.65625 -3.054688 3.875 -2.921875 C 4.101562 -2.785156 4.28125 -2.613281 4.40625 -2.40625 C 4.53125 -2.195312 4.59375 -1.9375 4.59375 -1.625 Z M 4.59375 -1.625 "/></g></g></g><g fill="#000000" fill-opacity="1"><g transform="translate(411.173939, 377.515072)"><g><path d="M 2.078125 0 L 0 -5.453125 L 1.5625 -5.453125 L 2.609375 -2.34375 C 2.671875 -2.15625 2.71875 -1.960938 2.75 -1.765625 C 2.78125 -1.566406 2.800781 -1.390625 2.8125 -1.234375 L 2.859375 -1.234375 C 2.878906 -1.585938 2.953125 -1.957031 3.078125 -2.34375 L 4.125 -5.453125 L 5.6875 -5.453125 L 3.609375 0 Z M 2.078125 0 "/></g></g></g><g fill="#000000" fill-opacity="1"><g transform="translate(417.261096, 377.515072)"><g><path d="M 2.546875 -5.5625 C 3.222656 -5.5625 3.75 -5.296875 4.125 -4.765625 L 4.171875 -4.765625 L 4.296875 -5.453125 L 5.546875 -5.453125 L 5.546875 0.015625 C 5.546875 0.796875 5.316406 1.390625 4.859375 1.796875 C 4.398438 2.203125 3.71875 2.40625 2.8125 2.40625 C 2.425781 2.40625 2.066406 2.378906 1.734375 2.328125 C 1.410156 2.285156 1.09375 2.203125 0.78125 2.078125 L 0.78125 0.890625 C 1.445312 1.171875 2.15625 1.3125 2.90625 1.3125 C 3.675781 1.3125 4.0625 0.894531 4.0625 0.0625 L 4.0625 -0.046875 C 4.0625 -0.148438 4.0625 -0.257812 4.0625 -0.375 C 4.070312 -0.5 4.082031 -0.609375 4.09375 -0.703125 L 4.0625 -0.703125 C 3.875 -0.421875 3.648438 -0.21875 3.390625 -0.09375 C 3.128906 0.03125 2.835938 0.09375 2.515625 0.09375 C 1.867188 0.09375 1.363281 -0.148438 1 -0.640625 C 0.632812 -1.140625 0.453125 -1.832031 0.453125 -2.71875 C 0.453125 -3.613281 0.632812 -4.3125 1 -4.8125 C 1.375 -5.3125 1.890625 -5.5625 2.546875 -5.5625 Z M 3.015625 -4.34375 C 2.316406 -4.34375 1.96875 -3.796875 1.96875 -2.703125 C 1.96875 -1.609375 2.328125 -1.0625 3.046875 -1.0625 C 3.421875 -1.0625 3.695312 -1.171875 3.875 -1.390625 C 4.0625 -1.609375 4.15625 -1.988281 4.15625 -2.53125 L 4.15625 -2.703125 C 4.15625 -3.296875 4.066406 -3.71875 3.890625 -3.96875 C 3.710938 -4.21875 3.421875 -4.34375 3.015625 -4.34375 Z M 3.015625 -4.34375 "/></g></g></g><g fill="#000000" fill-opacity="1"><g transform="translate(386.711778, 391.013751)"><g><path d="M 1.53125 -7.59375 C 1.75 -7.59375 1.9375 -7.539062 2.09375 -7.4375 C 2.257812 -7.34375 2.34375 -7.15625 2.34375 -6.875 C 2.34375 -6.59375 2.257812 -6.398438 2.09375 -6.296875 C 1.9375 -6.191406 1.75 -6.140625 1.53125 -6.140625 C 1.300781 -6.140625 1.109375 -6.191406 0.953125 -6.296875 C 0.796875 -6.398438 0.71875 -6.59375 0.71875 -6.875 C 0.71875 -7.15625 0.796875 -7.34375 0.953125 -7.4375 C 1.109375 -7.539062 1.300781 -7.59375 1.53125 -7.59375 Z M 2.265625 -5.453125 L 2.265625 0 L 0.78125 0 L 0.78125 -5.453125 Z M 2.265625 -5.453125 "/></g></g></g><g fill="#000000" fill-opacity="1"><g transform="translate(390.160232, 391.013751)"><g><path d="M 3.875 -5.5625 C 4.46875 -5.5625 4.9375 -5.398438 5.28125 -5.078125 C 5.632812 -4.765625 5.8125 -4.257812 5.8125 -3.5625 L 5.8125 0 L 4.328125 0 L 4.328125 -3.1875 C 4.328125 -3.582031 4.253906 -3.878906 4.109375 -4.078125 C 3.972656 -4.273438 3.753906 -4.375 3.453125 -4.375 C 2.992188 -4.375 2.679688 -4.21875 2.515625 -3.90625 C 2.347656 -3.59375 2.265625 -3.144531 2.265625 -2.5625 L 2.265625 0 L 0.78125 0 L 0.78125 -5.453125 L 1.921875 -5.453125 L 2.125 -4.765625 L 2.203125 -4.765625 C 2.367188 -5.046875 2.601562 -5.25 2.90625 -5.375 C 3.21875 -5.5 3.539062 -5.5625 3.875 -5.5625 Z M 3.875 -5.5625 "/></g></g></g><g fill="#000000" fill-opacity="1"><g transform="translate(397.126954, 391.013751)"><g><path d="M 4.59375 -1.625 C 4.59375 -1.070312 4.394531 -0.644531 4 -0.34375 C 3.613281 -0.0507812 3.035156 0.09375 2.265625 0.09375 C 1.878906 0.09375 1.550781 0.0664062 1.28125 0.015625 C 1.007812 -0.0234375 0.734375 -0.101562 0.453125 -0.21875 L 0.453125 -1.453125 C 0.753906 -1.316406 1.070312 -1.203125 1.40625 -1.109375 C 1.75 -1.023438 2.050781 -0.984375 2.3125 -0.984375 C 2.59375 -0.984375 2.796875 -1.023438 2.921875 -1.109375 C 3.054688 -1.203125 3.125 -1.316406 3.125 -1.453125 C 3.125 -1.546875 3.097656 -1.628906 3.046875 -1.703125 C 2.992188 -1.773438 2.882812 -1.859375 2.71875 -1.953125 C 2.550781 -2.046875 2.289062 -2.164062 1.9375 -2.3125 C 1.59375 -2.46875 1.3125 -2.613281 1.09375 -2.75 C 0.875 -2.894531 0.710938 -3.066406 0.609375 -3.265625 C 0.503906 -3.472656 0.453125 -3.734375 0.453125 -4.046875 C 0.453125 -4.546875 0.644531 -4.921875 1.03125 -5.171875 C 1.425781 -5.429688 1.953125 -5.5625 2.609375 -5.5625 C 2.953125 -5.5625 3.273438 -5.523438 3.578125 -5.453125 C 3.890625 -5.390625 4.207031 -5.28125 4.53125 -5.125 L 4.078125 -4.0625 C 3.816406 -4.175781 3.5625 -4.269531 3.3125 -4.34375 C 3.070312 -4.414062 2.832031 -4.453125 2.59375 -4.453125 C 2.15625 -4.453125 1.9375 -4.332031 1.9375 -4.09375 C 1.9375 -4.007812 1.960938 -3.929688 2.015625 -3.859375 C 2.066406 -3.796875 2.175781 -3.722656 2.34375 -3.640625 C 2.507812 -3.554688 2.75 -3.445312 3.0625 -3.3125 C 3.382812 -3.1875 3.65625 -3.054688 3.875 -2.921875 C 4.101562 -2.785156 4.28125 -2.613281 4.40625 -2.40625 C 4.53125 -2.195312 4.59375 -1.9375 4.59375 -1.625 Z M 4.59375 -1.625 "/></g></g></g><g fill="#000000" fill-opacity="1"><g transform="translate(402.494463, 391.013751)"><g><path d="M 1.34375 0 C 1.019531 0 0.773438 -0.078125 0.609375 -0.234375 C 0.453125 -0.398438 0.375 -0.617188 0.375 -0.890625 C 0.375 -1.191406 0.457031 -1.398438 0.625 -1.515625 C 0.800781 -1.628906 1.003906 -1.6875 1.234375 -1.6875 C 1.585938 -1.6875 1.851562 -1.609375 2.03125 -1.453125 C 2.207031 -1.296875 2.296875 -1.085938 2.296875 -0.828125 C 2.296875 -0.578125 2.207031 -0.375 2.03125 -0.21875 C 1.851562 -0.0703125 1.625 0 1.34375 0 Z M 1.34375 0 "/></g></g></g><g fill="#000000" fill-opacity="1"><g transform="translate(405.49314, 391.013751)"><g><path d="M 4.59375 -1.625 C 4.59375 -1.070312 4.394531 -0.644531 4 -0.34375 C 3.613281 -0.0507812 3.035156 0.09375 2.265625 0.09375 C 1.878906 0.09375 1.550781 0.0664062 1.28125 0.015625 C 1.007812 -0.0234375 0.734375 -0.101562 0.453125 -0.21875 L 0.453125 -1.453125 C 0.753906 -1.316406 1.070312 -1.203125 1.40625 -1.109375 C 1.75 -1.023438 2.050781 -0.984375 2.3125 -0.984375 C 2.59375 -0.984375 2.796875 -1.023438 2.921875 -1.109375 C 3.054688 -1.203125 3.125 -1.316406 3.125 -1.453125 C 3.125 -1.546875 3.097656 -1.628906 3.046875 -1.703125 C 2.992188 -1.773438 2.882812 -1.859375 2.71875 -1.953125 C 2.550781 -2.046875 2.289062 -2.164062 1.9375 -2.3125 C 1.59375 -2.46875 1.3125 -2.613281 1.09375 -2.75 C 0.875 -2.894531 0.710938 -3.066406 0.609375 -3.265625 C 0.503906 -3.472656 0.453125 -3.734375 0.453125 -4.046875 C 0.453125 -4.546875 0.644531 -4.921875 1.03125 -5.171875 C 1.425781 -5.429688 1.953125 -5.5625 2.609375 -5.5625 C 2.953125 -5.5625 3.273438 -5.523438 3.578125 -5.453125 C 3.890625 -5.390625 4.207031 -5.28125 4.53125 -5.125 L 4.078125 -4.0625 C 3.816406 -4.175781 3.5625 -4.269531 3.3125 -4.34375 C 3.070312 -4.414062 2.832031 -4.453125 2.59375 -4.453125 C 2.15625 -4.453125 1.9375 -4.332031 1.9375 -4.09375 C 1.9375 -4.007812 1.960938 -3.929688 2.015625 -3.859375 C 2.066406 -3.796875 2.175781 -3.722656 2.34375 -3.640625 C 2.507812 -3.554688 2.75 -3.445312 3.0625 -3.3125 C 3.382812 -3.1875 3.65625 -3.054688 3.875 -2.921875 C 4.101562 -2.785156 4.28125 -2.613281 4.40625 -2.40625 C 4.53125 -2.195312 4.59375 -1.9375 4.59375 -1.625 Z M 4.59375 -1.625 "/></g></g></g><g fill="#000000" fill-opacity="1"><g transform="translate(410.860649, 391.013751)"><g><path d="M 2.078125 0 L 0 -5.453125 L 1.5625 -5.453125 L 2.609375 -2.34375 C 2.671875 -2.15625 2.71875 -1.960938 2.75 -1.765625 C 2.78125 -1.566406 2.800781 -1.390625 2.8125 -1.234375 L 2.859375 -1.234375 C 2.878906 -1.585938 2.953125 -1.957031 3.078125 -2.34375 L 4.125 -5.453125 L 5.6875 -5.453125 L 3.609375 0 Z M 2.078125 0 "/></g></g></g><g fill="#000000" fill-opacity="1"><g transform="translate(416.947807, 391.013751)"><g><path d="M 2.546875 -5.5625 C 3.222656 -5.5625 3.75 -5.296875 4.125 -4.765625 L 4.171875 -4.765625 L 4.296875 -5.453125 L 5.546875 -5.453125 L 5.546875 0.015625 C 5.546875 0.796875 5.316406 1.390625 4.859375 1.796875 C 4.398438 2.203125 3.71875 2.40625 2.8125 2.40625 C 2.425781 2.40625 2.066406 2.378906 1.734375 2.328125 C 1.410156 2.285156 1.09375 2.203125 0.78125 2.078125 L 0.78125 0.890625 C 1.445312 1.171875 2.15625 1.3125 2.90625 1.3125 C 3.675781 1.3125 4.0625 0.894531 4.0625 0.0625 L 4.0625 -0.046875 C 4.0625 -0.148438 4.0625 -0.257812 4.0625 -0.375 C 4.070312 -0.5 4.082031 -0.609375 4.09375 -0.703125 L 4.0625 -0.703125 C 3.875 -0.421875 3.648438 -0.21875 3.390625 -0.09375 C 3.128906 0.03125 2.835938 0.09375 2.515625 0.09375 C 1.867188 0.09375 1.363281 -0.148438 1 -0.640625 C 0.632812 -1.140625 0.453125 -1.832031 0.453125 -2.71875 C 0.453125 -3.613281 0.632812 -4.3125 1 -4.8125 C 1.375 -5.3125 1.890625 -5.5625 2.546875 -5.5625 Z M 3.015625 -4.34375 C 2.316406 -4.34375 1.96875 -3.796875 1.96875 -2.703125 C 1.96875 -1.609375 2.328125 -1.0625 3.046875 -1.0625 C 3.421875 -1.0625 3.695312 -1.171875 3.875 -1.390625 C 4.0625 -1.609375 4.15625 -1.988281 4.15625 -2.53125 L 4.15625 -2.703125 C 4.15625 -3.296875 4.066406 -3.71875 3.890625 -3.96875 C 3.710938 -4.21875 3.421875 -4.34375 3.015625 -4.34375 Z M 3.015625 -4.34375 "/></g></g></g><g fill="#000000" fill-opacity="1"><g transform="translate(385.715786, 404.51243)"><g><path d="M 3.828125 -5.5625 C 3.898438 -5.5625 3.984375 -5.554688 4.078125 -5.546875 C 4.179688 -5.546875 4.265625 -5.535156 4.328125 -5.515625 L 4.21875 -4.125 C 4.164062 -4.132812 4.09375 -4.144531 4 -4.15625 C 3.914062 -4.164062 3.84375 -4.171875 3.78125 -4.171875 C 3.53125 -4.171875 3.285156 -4.125 3.046875 -4.03125 C 2.816406 -3.945312 2.628906 -3.800781 2.484375 -3.59375 C 2.335938 -3.394531 2.265625 -3.125 2.265625 -2.78125 L 2.265625 0 L 0.78125 0 L 0.78125 -5.453125 L 1.90625 -5.453125 L 2.125 -4.546875 L 2.203125 -4.546875 C 2.359375 -4.816406 2.578125 -5.050781 2.859375 -5.25 C 3.140625 -5.457031 3.460938 -5.5625 3.828125 -5.5625 Z M 3.828125 -5.5625 "/></g></g></g><g fill="#000000" fill-opacity="1"><g transform="translate(390.453577, 404.51243)"><g><path d="M 3.03125 -5.5625 C 3.78125 -5.5625 4.375 -5.34375 4.8125 -4.90625 C 5.257812 -4.476562 5.484375 -3.867188 5.484375 -3.078125 L 5.484375 -2.359375 L 1.953125 -2.359375 C 1.972656 -1.941406 2.097656 -1.613281 2.328125 -1.375 C 2.566406 -1.132812 2.894531 -1.015625 3.3125 -1.015625 C 3.664062 -1.015625 3.984375 -1.046875 4.265625 -1.109375 C 4.554688 -1.179688 4.859375 -1.289062 5.171875 -1.4375 L 5.171875 -0.296875 C 4.898438 -0.160156 4.613281 -0.0625 4.3125 0 C 4.019531 0.0625 3.664062 0.09375 3.25 0.09375 C 2.707031 0.09375 2.222656 -0.00390625 1.796875 -0.203125 C 1.378906 -0.410156 1.050781 -0.71875 0.8125 -1.125 C 0.570312 -1.53125 0.453125 -2.050781 0.453125 -2.6875 C 0.453125 -3.320312 0.554688 -3.851562 0.765625 -4.28125 C 0.984375 -4.707031 1.285156 -5.023438 1.671875 -5.234375 C 2.066406 -5.453125 2.519531 -5.5625 3.03125 -5.5625 Z M 3.046875 -4.5 C 2.742188 -4.5 2.5 -4.40625 2.3125 -4.21875 C 2.132812 -4.03125 2.023438 -3.738281 1.984375 -3.34375 L 4.078125 -3.34375 C 4.066406 -3.675781 3.976562 -3.953125 3.8125 -4.171875 C 3.644531 -4.390625 3.390625 -4.5 3.046875 -4.5 Z M 3.046875 -4.5 "/></g></g></g><g fill="#000000" fill-opacity="1"><g transform="translate(396.760622, 404.51243)"><g><path d="M 4.0625 2.40625 L 4.0625 0.109375 C 4.0625 -0.160156 4.082031 -0.429688 4.125 -0.703125 L 4.0625 -0.703125 C 3.914062 -0.484375 3.71875 -0.296875 3.46875 -0.140625 C 3.226562 0.015625 2.910156 0.09375 2.515625 0.09375 C 1.898438 0.09375 1.398438 -0.140625 1.015625 -0.609375 C 0.640625 -1.085938 0.453125 -1.789062 0.453125 -2.71875 C 0.453125 -3.65625 0.644531 -4.363281 1.03125 -4.84375 C 1.414062 -5.320312 1.921875 -5.5625 2.546875 -5.5625 C 2.941406 -5.5625 3.265625 -5.484375 3.515625 -5.328125 C 3.765625 -5.171875 3.96875 -4.984375 4.125 -4.765625 L 4.15625 -4.765625 L 4.296875 -5.453125 L 5.546875 -5.453125 L 5.546875 2.40625 Z M 3.046875 -1.0625 C 3.453125 -1.0625 3.734375 -1.179688 3.890625 -1.421875 C 4.054688 -1.671875 4.144531 -2.039062 4.15625 -2.53125 L 4.15625 -2.703125 C 4.15625 -3.234375 4.070312 -3.640625 3.90625 -3.921875 C 3.75 -4.203125 3.453125 -4.34375 3.015625 -4.34375 C 2.660156 -4.34375 2.394531 -4.203125 2.21875 -3.921875 C 2.050781 -3.640625 1.96875 -3.234375 1.96875 -2.703125 C 1.96875 -1.609375 2.328125 -1.0625 3.046875 -1.0625 Z M 3.046875 -1.0625 "/></g></g></g><g fill="#000000" fill-opacity="1"><g transform="translate(403.487465, 404.51243)"><g><path d="M 1.34375 0 C 1.019531 0 0.773438 -0.078125 0.609375 -0.234375 C 0.453125 -0.398438 0.375 -0.617188 0.375 -0.890625 C 0.375 -1.191406 0.457031 -1.398438 0.625 -1.515625 C 0.800781 -1.628906 1.003906 -1.6875 1.234375 -1.6875 C 1.585938 -1.6875 1.851562 -1.609375 2.03125 -1.453125 C 2.207031 -1.296875 2.296875 -1.085938 2.296875 -0.828125 C 2.296875 -0.578125 2.207031 -0.375 2.03125 -0.21875 C 1.851562 -0.0703125 1.625 0 1.34375 0 Z M 1.34375 0 "/></g></g></g><g fill="#000000" fill-opacity="1"><g transform="translate(406.486142, 404.51243)"><g><path d="M 4.59375 -1.625 C 4.59375 -1.070312 4.394531 -0.644531 4 -0.34375 C 3.613281 -0.0507812 3.035156 0.09375 2.265625 0.09375 C 1.878906 0.09375 1.550781 0.0664062 1.28125 0.015625 C 1.007812 -0.0234375 0.734375 -0.101562 0.453125 -0.21875 L 0.453125 -1.453125 C 0.753906 -1.316406 1.070312 -1.203125 1.40625 -1.109375 C 1.75 -1.023438 2.050781 -0.984375 2.3125 -0.984375 C 2.59375 -0.984375 2.796875 -1.023438 2.921875 -1.109375 C 3.054688 -1.203125 3.125 -1.316406 3.125 -1.453125 C 3.125 -1.546875 3.097656 -1.628906 3.046875 -1.703125 C 2.992188 -1.773438 2.882812 -1.859375 2.71875 -1.953125 C 2.550781 -2.046875 2.289062 -2.164062 1.9375 -2.3125 C 1.59375 -2.46875 1.3125 -2.613281 1.09375 -2.75 C 0.875 -2.894531 0.710938 -3.066406 0.609375 -3.265625 C 0.503906 -3.472656 0.453125 -3.734375 0.453125 -4.046875 C 0.453125 -4.546875 0.644531 -4.921875 1.03125 -5.171875 C 1.425781 -5.429688 1.953125 -5.5625 2.609375 -5.5625 C 2.953125 -5.5625 3.273438 -5.523438 3.578125 -5.453125 C 3.890625 -5.390625 4.207031 -5.28125 4.53125 -5.125 L 4.078125 -4.0625 C 3.816406 -4.175781 3.5625 -4.269531 3.3125 -4.34375 C 3.070312 -4.414062 2.832031 -4.453125 2.59375 -4.453125 C 2.15625 -4.453125 1.9375 -4.332031 1.9375 -4.09375 C 1.9375 -4.007812 1.960938 -3.929688 2.015625 -3.859375 C 2.066406 -3.796875 2.175781 -3.722656 2.34375 -3.640625 C 2.507812 -3.554688 2.75 -3.445312 3.0625 -3.3125 C 3.382812 -3.1875 3.65625 -3.054688 3.875 -2.921875 C 4.101562 -2.785156 4.28125 -2.613281 4.40625 -2.40625 C 4.53125 -2.195312 4.59375 -1.9375 4.59375 -1.625 Z M 4.59375 -1.625 "/></g></g></g><g fill="#000000" fill-opacity="1"><g transform="translate(411.853651, 404.51243)"><g><path d="M 2.078125 0 L 0 -5.453125 L 1.5625 -5.453125 L 2.609375 -2.34375 C 2.671875 -2.15625 2.71875 -1.960938 2.75 -1.765625 C 2.78125 -1.566406 2.800781 -1.390625 2.8125 -1.234375 L 2.859375 -1.234375 C 2.878906 -1.585938 2.953125 -1.957031 3.078125 -2.34375 L 4.125 -5.453125 L 5.6875 -5.453125 L 3.609375 0 Z M 2.078125 0 "/></g></g></g><g fill="#000000" fill-opacity="1"><g transform="translate(417.940809, 404.51243)"><g><path d="M 2.546875 -5.5625 C 3.222656 -5.5625 3.75 -5.296875 4.125 -4.765625 L 4.171875 -4.765625 L 4.296875 -5.453125 L 5.546875 -5.453125 L 5.546875 0.015625 C 5.546875 0.796875 5.316406 1.390625 4.859375 1.796875 C 4.398438 2.203125 3.71875 2.40625 2.8125 2.40625 C 2.425781 2.40625 2.066406 2.378906 1.734375 2.328125 C 1.410156 2.285156 1.09375 2.203125 0.78125 2.078125 L 0.78125 0.890625 C 1.445312 1.171875 2.15625 1.3125 2.90625 1.3125 C 3.675781 1.3125 4.0625 0.894531 4.0625 0.0625 L 4.0625 -0.046875 C 4.0625 -0.148438 4.0625 -0.257812 4.0625 -0.375 C 4.070312 -0.5 4.082031 -0.609375 4.09375 -0.703125 L 4.0625 -0.703125 C 3.875 -0.421875 3.648438 -0.21875 3.390625 -0.09375 C 3.128906 0.03125 2.835938 0.09375 2.515625 0.09375 C 1.867188 0.09375 1.363281 -0.148438 1 -0.640625 C 0.632812 -1.140625 0.453125 -1.832031 0.453125 -2.71875 C 0.453125 -3.613281 0.632812 -4.3125 1 -4.8125 C 1.375 -5.3125 1.890625 -5.5625 2.546875 -5.5625 Z M 3.015625 -4.34375 C 2.316406 -4.34375 1.96875 -3.796875 1.96875 -2.703125 C 1.96875 -1.609375 2.328125 -1.0625 3.046875 -1.0625 C 3.421875 -1.0625 3.695312 -1.171875 3.875 -1.390625 C 4.0625 -1.609375 4.15625 -1.988281 4.15625 -2.53125 L 4.15625 -2.703125 C 4.15625 -3.296875 4.066406 -3.71875 3.890625 -3.96875 C 3.710938 -4.21875 3.421875 -4.34375 3.015625 -4.34375 Z M 3.015625 -4.34375 "/></g></g></g><g fill="#000000" fill-opacity="1"><g transform="translate(386.89926, 418.011109)"><g><path d="M 4.59375 -1.625 C 4.59375 -1.070312 4.394531 -0.644531 4 -0.34375 C 3.613281 -0.0507812 3.035156 0.09375 2.265625 0.09375 C 1.878906 0.09375 1.550781 0.0664062 1.28125 0.015625 C 1.007812 -0.0234375 0.734375 -0.101562 0.453125 -0.21875 L 0.453125 -1.453125 C 0.753906 -1.316406 1.070312 -1.203125 1.40625 -1.109375 C 1.75 -1.023438 2.050781 -0.984375 2.3125 -0.984375 C 2.59375 -0.984375 2.796875 -1.023438 2.921875 -1.109375 C 3.054688 -1.203125 3.125 -1.316406 3.125 -1.453125 C 3.125 -1.546875 3.097656 -1.628906 3.046875 -1.703125 C 2.992188 -1.773438 2.882812 -1.859375 2.71875 -1.953125 C 2.550781 -2.046875 2.289062 -2.164062 1.9375 -2.3125 C 1.59375 -2.46875 1.3125 -2.613281 1.09375 -2.75 C 0.875 -2.894531 0.710938 -3.066406 0.609375 -3.265625 C 0.503906 -3.472656 0.453125 -3.734375 0.453125 -4.046875 C 0.453125 -4.546875 0.644531 -4.921875 1.03125 -5.171875 C 1.425781 -5.429688 1.953125 -5.5625 2.609375 -5.5625 C 2.953125 -5.5625 3.273438 -5.523438 3.578125 -5.453125 C 3.890625 -5.390625 4.207031 -5.28125 4.53125 -5.125 L 4.078125 -4.0625 C 3.816406 -4.175781 3.5625 -4.269531 3.3125 -4.34375 C 3.070312 -4.414062 2.832031 -4.453125 2.59375 -4.453125 C 2.15625 -4.453125 1.9375 -4.332031 1.9375 -4.09375 C 1.9375 -4.007812 1.960938 -3.929688 2.015625 -3.859375 C 2.066406 -3.796875 2.175781 -3.722656 2.34375 -3.640625 C 2.507812 -3.554688 2.75 -3.445312 3.0625 -3.3125 C 3.382812 -3.1875 3.65625 -3.054688 3.875 -2.921875 C 4.101562 -2.785156 4.28125 -2.613281 4.40625 -2.40625 C 4.53125 -2.195312 4.59375 -1.9375 4.59375 -1.625 Z M 4.59375 -1.625 "/></g></g></g><g fill="#000000" fill-opacity="1"><g transform="translate(392.266769, 418.011109)"><g><path d="M 5.734375 -2.734375 C 5.734375 -1.828125 5.492188 -1.128906 5.015625 -0.640625 C 4.546875 -0.148438 3.898438 0.09375 3.078125 0.09375 C 2.566406 0.09375 2.113281 -0.015625 1.71875 -0.234375 C 1.320312 -0.453125 1.007812 -0.769531 0.78125 -1.1875 C 0.5625 -1.613281 0.453125 -2.128906 0.453125 -2.734375 C 0.453125 -3.640625 0.6875 -4.335938 1.15625 -4.828125 C 1.632812 -5.316406 2.285156 -5.5625 3.109375 -5.5625 C 3.617188 -5.5625 4.070312 -5.453125 4.46875 -5.234375 C 4.863281 -5.015625 5.171875 -4.691406 5.390625 -4.265625 C 5.617188 -3.847656 5.734375 -3.335938 5.734375 -2.734375 Z M 1.96875 -2.734375 C 1.96875 -2.203125 2.054688 -1.796875 2.234375 -1.515625 C 2.410156 -1.234375 2.695312 -1.09375 3.09375 -1.09375 C 3.488281 -1.09375 3.773438 -1.234375 3.953125 -1.515625 C 4.128906 -1.796875 4.21875 -2.203125 4.21875 -2.734375 C 4.21875 -3.273438 4.128906 -3.679688 3.953125 -3.953125 C 3.773438 -4.222656 3.488281 -4.359375 3.09375 -4.359375 C 2.695312 -4.359375 2.410156 -4.222656 2.234375 -3.953125 C 2.054688 -3.679688 1.96875 -3.273438 1.96875 -2.734375 Z M 1.96875 -2.734375 "/></g></g></g><g fill="#000000" fill-opacity="1"><g transform="translate(398.853676, 418.011109)"><g><path d="M 2.265625 0 L 0.78125 0 L 0.78125 -7.59375 L 2.265625 -7.59375 Z M 2.265625 0 "/></g></g></g><g fill="#000000" fill-opacity="1"><g transform="translate(402.302129, 418.011109)"><g><path d="M 1.34375 0 C 1.019531 0 0.773438 -0.078125 0.609375 -0.234375 C 0.453125 -0.398438 0.375 -0.617188 0.375 -0.890625 C 0.375 -1.191406 0.457031 -1.398438 0.625 -1.515625 C 0.800781 -1.628906 1.003906 -1.6875 1.234375 -1.6875 C 1.585938 -1.6875 1.851562 -1.609375 2.03125 -1.453125 C 2.207031 -1.296875 2.296875 -1.085938 2.296875 -0.828125 C 2.296875 -0.578125 2.207031 -0.375 2.03125 -0.21875 C 1.851562 -0.0703125 1.625 0 1.34375 0 Z M 1.34375 0 "/></g></g></g><g fill="#000000" fill-opacity="1"><g transform="translate(405.300806, 418.011109)"><g><path d="M 4.59375 -1.625 C 4.59375 -1.070312 4.394531 -0.644531 4 -0.34375 C 3.613281 -0.0507812 3.035156 0.09375 2.265625 0.09375 C 1.878906 0.09375 1.550781 0.0664062 1.28125 0.015625 C 1.007812 -0.0234375 0.734375 -0.101562 0.453125 -0.21875 L 0.453125 -1.453125 C 0.753906 -1.316406 1.070312 -1.203125 1.40625 -1.109375 C 1.75 -1.023438 2.050781 -0.984375 2.3125 -0.984375 C 2.59375 -0.984375 2.796875 -1.023438 2.921875 -1.109375 C 3.054688 -1.203125 3.125 -1.316406 3.125 -1.453125 C 3.125 -1.546875 3.097656 -1.628906 3.046875 -1.703125 C 2.992188 -1.773438 2.882812 -1.859375 2.71875 -1.953125 C 2.550781 -2.046875 2.289062 -2.164062 1.9375 -2.3125 C 1.59375 -2.46875 1.3125 -2.613281 1.09375 -2.75 C 0.875 -2.894531 0.710938 -3.066406 0.609375 -3.265625 C 0.503906 -3.472656 0.453125 -3.734375 0.453125 -4.046875 C 0.453125 -4.546875 0.644531 -4.921875 1.03125 -5.171875 C 1.425781 -5.429688 1.953125 -5.5625 2.609375 -5.5625 C 2.953125 -5.5625 3.273438 -5.523438 3.578125 -5.453125 C 3.890625 -5.390625 4.207031 -5.28125 4.53125 -5.125 L 4.078125 -4.0625 C 3.816406 -4.175781 3.5625 -4.269531 3.3125 -4.34375 C 3.070312 -4.414062 2.832031 -4.453125 2.59375 -4.453125 C 2.15625 -4.453125 1.9375 -4.332031 1.9375 -4.09375 C 1.9375 -4.007812 1.960938 -3.929688 2.015625 -3.859375 C 2.066406 -3.796875 2.175781 -3.722656 2.34375 -3.640625 C 2.507812 -3.554688 2.75 -3.445312 3.0625 -3.3125 C 3.382812 -3.1875 3.65625 -3.054688 3.875 -2.921875 C 4.101562 -2.785156 4.28125 -2.613281 4.40625 -2.40625 C 4.53125 -2.195312 4.59375 -1.9375 4.59375 -1.625 Z M 4.59375 -1.625 "/></g></g></g><g fill="#000000" fill-opacity="1"><g transform="translate(410.668315, 418.011109)"><g><path d="M 2.078125 0 L 0 -5.453125 L 1.5625 -5.453125 L 2.609375 -2.34375 C 2.671875 -2.15625 2.71875 -1.960938 2.75 -1.765625 C 2.78125 -1.566406 2.800781 -1.390625 2.8125 -1.234375 L 2.859375 -1.234375 C 2.878906 -1.585938 2.953125 -1.957031 3.078125 -2.34375 L 4.125 -5.453125 L 5.6875 -5.453125 L 3.609375 0 Z M 2.078125 0 "/></g></g></g><g fill="#000000" fill-opacity="1"><g transform="translate(416.755473, 418.011109)"><g><path d="M 2.546875 -5.5625 C 3.222656 -5.5625 3.75 -5.296875 4.125 -4.765625 L 4.171875 -4.765625 L 4.296875 -5.453125 L 5.546875 -5.453125 L 5.546875 0.015625 C 5.546875 0.796875 5.316406 1.390625 4.859375 1.796875 C 4.398438 2.203125 3.71875 2.40625 2.8125 2.40625 C 2.425781 2.40625 2.066406 2.378906 1.734375 2.328125 C 1.410156 2.285156 1.09375 2.203125 0.78125 2.078125 L 0.78125 0.890625 C 1.445312 1.171875 2.15625 1.3125 2.90625 1.3125 C 3.675781 1.3125 4.0625 0.894531 4.0625 0.0625 L 4.0625 -0.046875 C 4.0625 -0.148438 4.0625 -0.257812 4.0625 -0.375 C 4.070312 -0.5 4.082031 -0.609375 4.09375 -0.703125 L 4.0625 -0.703125 C 3.875 -0.421875 3.648438 -0.21875 3.390625 -0.09375 C 3.128906 0.03125 2.835938 0.09375 2.515625 0.09375 C 1.867188 0.09375 1.363281 -0.148438 1 -0.640625 C 0.632812 -1.140625 0.453125 -1.832031 0.453125 -2.71875 C 0.453125 -3.613281 0.632812 -4.3125 1 -4.8125 C 1.375 -5.3125 1.890625 -5.5625 2.546875 -5.5625 Z M 3.015625 -4.34375 C 2.316406 -4.34375 1.96875 -3.796875 1.96875 -2.703125 C 1.96875 -1.609375 2.328125 -1.0625 3.046875 -1.0625 C 3.421875 -1.0625 3.695312 -1.171875 3.875 -1.390625 C 4.0625 -1.609375 4.15625 -1.988281 4.15625 -2.53125 L 4.15625 -2.703125 C 4.15625 -3.296875 4.066406 -3.71875 3.890625 -3.96875 C 3.710938 -4.21875 3.421875 -4.34375 3.015625 -4.34375 Z M 3.015625 -4.34375 "/></g></g></g><g fill="#000000" fill-opacity="1"><g transform="translate(385.282231, 431.509788)"><g><path d="M 5.796875 -5.453125 L 5.796875 0 L 4.65625 0 L 4.453125 -0.703125 L 4.375 -0.703125 C 4.195312 -0.421875 3.957031 -0.21875 3.65625 -0.09375 C 3.351562 0.03125 3.03125 0.09375 2.6875 0.09375 C 2.101562 0.09375 1.632812 -0.0625 1.28125 -0.375 C 0.925781 -0.6875 0.75 -1.195312 0.75 -1.90625 L 0.75 -5.453125 L 2.234375 -5.453125 L 2.234375 -2.265625 C 2.234375 -1.878906 2.300781 -1.585938 2.4375 -1.390625 C 2.582031 -1.191406 2.8125 -1.09375 3.125 -1.09375 C 3.570312 -1.09375 3.878906 -1.242188 4.046875 -1.546875 C 4.210938 -1.859375 4.296875 -2.304688 4.296875 -2.890625 L 4.296875 -5.453125 Z M 5.796875 -5.453125 "/></g></g></g><g fill="#000000" fill-opacity="1"><g transform="translate(392.248952, 431.509788)"><g><path d="M 4.59375 -1.625 C 4.59375 -1.070312 4.394531 -0.644531 4 -0.34375 C 3.613281 -0.0507812 3.035156 0.09375 2.265625 0.09375 C 1.878906 0.09375 1.550781 0.0664062 1.28125 0.015625 C 1.007812 -0.0234375 0.734375 -0.101562 0.453125 -0.21875 L 0.453125 -1.453125 C 0.753906 -1.316406 1.070312 -1.203125 1.40625 -1.109375 C 1.75 -1.023438 2.050781 -0.984375 2.3125 -0.984375 C 2.59375 -0.984375 2.796875 -1.023438 2.921875 -1.109375 C 3.054688 -1.203125 3.125 -1.316406 3.125 -1.453125 C 3.125 -1.546875 3.097656 -1.628906 3.046875 -1.703125 C 2.992188 -1.773438 2.882812 -1.859375 2.71875 -1.953125 C 2.550781 -2.046875 2.289062 -2.164062 1.9375 -2.3125 C 1.59375 -2.46875 1.3125 -2.613281 1.09375 -2.75 C 0.875 -2.894531 0.710938 -3.066406 0.609375 -3.265625 C 0.503906 -3.472656 0.453125 -3.734375 0.453125 -4.046875 C 0.453125 -4.546875 0.644531 -4.921875 1.03125 -5.171875 C 1.425781 -5.429688 1.953125 -5.5625 2.609375 -5.5625 C 2.953125 -5.5625 3.273438 -5.523438 3.578125 -5.453125 C 3.890625 -5.390625 4.207031 -5.28125 4.53125 -5.125 L 4.078125 -4.0625 C 3.816406 -4.175781 3.5625 -4.269531 3.3125 -4.34375 C 3.070312 -4.414062 2.832031 -4.453125 2.59375 -4.453125 C 2.15625 -4.453125 1.9375 -4.332031 1.9375 -4.09375 C 1.9375 -4.007812 1.960938 -3.929688 2.015625 -3.859375 C 2.066406 -3.796875 2.175781 -3.722656 2.34375 -3.640625 C 2.507812 -3.554688 2.75 -3.445312 3.0625 -3.3125 C 3.382812 -3.1875 3.65625 -3.054688 3.875 -2.921875 C 4.101562 -2.785156 4.28125 -2.613281 4.40625 -2.40625 C 4.53125 -2.195312 4.59375 -1.9375 4.59375 -1.625 Z M 4.59375 -1.625 "/></g></g></g><g fill="#000000" fill-opacity="1"><g transform="translate(397.616462, 431.509788)"><g><path d="M 3.03125 -5.5625 C 3.78125 -5.5625 4.375 -5.34375 4.8125 -4.90625 C 5.257812 -4.476562 5.484375 -3.867188 5.484375 -3.078125 L 5.484375 -2.359375 L 1.953125 -2.359375 C 1.972656 -1.941406 2.097656 -1.613281 2.328125 -1.375 C 2.566406 -1.132812 2.894531 -1.015625 3.3125 -1.015625 C 3.664062 -1.015625 3.984375 -1.046875 4.265625 -1.109375 C 4.554688 -1.179688 4.859375 -1.289062 5.171875 -1.4375 L 5.171875 -0.296875 C 4.898438 -0.160156 4.613281 -0.0625 4.3125 0 C 4.019531 0.0625 3.664062 0.09375 3.25 0.09375 C 2.707031 0.09375 2.222656 -0.00390625 1.796875 -0.203125 C 1.378906 -0.410156 1.050781 -0.71875 0.8125 -1.125 C 0.570312 -1.53125 0.453125 -2.050781 0.453125 -2.6875 C 0.453125 -3.320312 0.554688 -3.851562 0.765625 -4.28125 C 0.984375 -4.707031 1.285156 -5.023438 1.671875 -5.234375 C 2.066406 -5.453125 2.519531 -5.5625 3.03125 -5.5625 Z M 3.046875 -4.5 C 2.742188 -4.5 2.5 -4.40625 2.3125 -4.21875 C 2.132812 -4.03125 2.023438 -3.738281 1.984375 -3.34375 L 4.078125 -3.34375 C 4.066406 -3.675781 3.976562 -3.953125 3.8125 -4.171875 C 3.644531 -4.390625 3.390625 -4.5 3.046875 -4.5 Z M 3.046875 -4.5 "/></g></g></g><g fill="#000000" fill-opacity="1"><g transform="translate(403.923508, 431.509788)"><g><path d="M 1.34375 0 C 1.019531 0 0.773438 -0.078125 0.609375 -0.234375 C 0.453125 -0.398438 0.375 -0.617188 0.375 -0.890625 C 0.375 -1.191406 0.457031 -1.398438 0.625 -1.515625 C 0.800781 -1.628906 1.003906 -1.6875 1.234375 -1.6875 C 1.585938 -1.6875 1.851562 -1.609375 2.03125 -1.453125 C 2.207031 -1.296875 2.296875 -1.085938 2.296875 -0.828125 C 2.296875 -0.578125 2.207031 -0.375 2.03125 -0.21875 C 1.851562 -0.0703125 1.625 0 1.34375 0 Z M 1.34375 0 "/></g></g></g><g fill="#000000" fill-opacity="1"><g transform="translate(406.922184, 431.509788)"><g><path d="M 4.59375 -1.625 C 4.59375 -1.070312 4.394531 -0.644531 4 -0.34375 C 3.613281 -0.0507812 3.035156 0.09375 2.265625 0.09375 C 1.878906 0.09375 1.550781 0.0664062 1.28125 0.015625 C 1.007812 -0.0234375 0.734375 -0.101562 0.453125 -0.21875 L 0.453125 -1.453125 C 0.753906 -1.316406 1.070312 -1.203125 1.40625 -1.109375 C 1.75 -1.023438 2.050781 -0.984375 2.3125 -0.984375 C 2.59375 -0.984375 2.796875 -1.023438 2.921875 -1.109375 C 3.054688 -1.203125 3.125 -1.316406 3.125 -1.453125 C 3.125 -1.546875 3.097656 -1.628906 3.046875 -1.703125 C 2.992188 -1.773438 2.882812 -1.859375 2.71875 -1.953125 C 2.550781 -2.046875 2.289062 -2.164062 1.9375 -2.3125 C 1.59375 -2.46875 1.3125 -2.613281 1.09375 -2.75 C 0.875 -2.894531 0.710938 -3.066406 0.609375 -3.265625 C 0.503906 -3.472656 0.453125 -3.734375 0.453125 -4.046875 C 0.453125 -4.546875 0.644531 -4.921875 1.03125 -5.171875 C 1.425781 -5.429688 1.953125 -5.5625 2.609375 -5.5625 C 2.953125 -5.5625 3.273438 -5.523438 3.578125 -5.453125 C 3.890625 -5.390625 4.207031 -5.28125 4.53125 -5.125 L 4.078125 -4.0625 C 3.816406 -4.175781 3.5625 -4.269531 3.3125 -4.34375 C 3.070312 -4.414062 2.832031 -4.453125 2.59375 -4.453125 C 2.15625 -4.453125 1.9375 -4.332031 1.9375 -4.09375 C 1.9375 -4.007812 1.960938 -3.929688 2.015625 -3.859375 C 2.066406 -3.796875 2.175781 -3.722656 2.34375 -3.640625 C 2.507812 -3.554688 2.75 -3.445312 3.0625 -3.3125 C 3.382812 -3.1875 3.65625 -3.054688 3.875 -2.921875 C 4.101562 -2.785156 4.28125 -2.613281 4.40625 -2.40625 C 4.53125 -2.195312 4.59375 -1.9375 4.59375 -1.625 Z M 4.59375 -1.625 "/></g></g></g><g fill="#000000" fill-opacity="1"><g transform="translate(412.289693, 431.509788)"><g><path d="M 2.078125 0 L 0 -5.453125 L 1.5625 -5.453125 L 2.609375 -2.34375 C 2.671875 -2.15625 2.71875 -1.960938 2.75 -1.765625 C 2.78125 -1.566406 2.800781 -1.390625 2.8125 -1.234375 L 2.859375 -1.234375 C 2.878906 -1.585938 2.953125 -1.957031 3.078125 -2.34375 L 4.125 -5.453125 L 5.6875 -5.453125 L 3.609375 0 Z M 2.078125 0 "/></g></g></g><g fill="#000000" fill-opacity="1"><g transform="translate(418.37685, 431.509788)"><g><path d="M 2.546875 -5.5625 C 3.222656 -5.5625 3.75 -5.296875 4.125 -4.765625 L 4.171875 -4.765625 L 4.296875 -5.453125 L 5.546875 -5.453125 L 5.546875 0.015625 C 5.546875 0.796875 5.316406 1.390625 4.859375 1.796875 C 4.398438 2.203125 3.71875 2.40625 2.8125 2.40625 C 2.425781 2.40625 2.066406 2.378906 1.734375 2.328125 C 1.410156 2.285156 1.09375 2.203125 0.78125 2.078125 L 0.78125 0.890625 C 1.445312 1.171875 2.15625 1.3125 2.90625 1.3125 C 3.675781 1.3125 4.0625 0.894531 4.0625 0.0625 L 4.0625 -0.046875 C 4.0625 -0.148438 4.0625 -0.257812 4.0625 -0.375 C 4.070312 -0.5 4.082031 -0.609375 4.09375 -0.703125 L 4.0625 -0.703125 C 3.875 -0.421875 3.648438 -0.21875 3.390625 -0.09375 C 3.128906 0.03125 2.835938 0.09375 2.515625 0.09375 C 1.867188 0.09375 1.363281 -0.148438 1 -0.640625 C 0.632812 -1.140625 0.453125 -1.832031 0.453125 -2.71875 C 0.453125 -3.613281 0.632812 -4.3125 1 -4.8125 C 1.375 -5.3125 1.890625 -5.5625 2.546875 -5.5625 Z M 3.015625 -4.34375 C 2.316406 -4.34375 1.96875 -3.796875 1.96875 -2.703125 C 1.96875 -1.609375 2.328125 -1.0625 3.046875 -1.0625 C 3.421875 -1.0625 3.695312 -1.171875 3.875 -1.390625 C 4.0625 -1.609375 4.15625 -1.988281 4.15625 -2.53125 L 4.15625 -2.703125 C 4.15625 -3.296875 4.066406 -3.71875 3.890625 -3.96875 C 3.710938 -4.21875 3.421875 -4.34375 3.015625 -4.34375 Z M 3.015625 -4.34375 "/></g></g></g><g fill="#000000" fill-opacity="1"><g transform="translate(389.102169, 445.008468)"><g><path d="M 3.796875 -4.34375 L 2.515625 -4.34375 L 2.515625 0 L 1.015625 0 L 1.015625 -4.34375 L 0.203125 -4.34375 L 0.203125 -5.0625 L 1.015625 -5.453125 L 1.015625 -5.859375 C 1.015625 -6.328125 1.09375 -6.6875 1.25 -6.9375 C 1.40625 -7.195312 1.628906 -7.378906 1.921875 -7.484375 C 2.210938 -7.597656 2.554688 -7.65625 2.953125 -7.65625 C 3.234375 -7.65625 3.492188 -7.628906 3.734375 -7.578125 C 3.972656 -7.535156 4.164062 -7.484375 4.3125 -7.421875 L 3.9375 -6.328125 C 3.820312 -6.359375 3.695312 -6.390625 3.5625 -6.421875 C 3.425781 -6.453125 3.273438 -6.46875 3.109375 -6.46875 C 2.898438 -6.46875 2.75 -6.40625 2.65625 -6.28125 C 2.5625 -6.15625 2.515625 -5.992188 2.515625 -5.796875 L 2.515625 -5.453125 L 3.796875 -5.453125 Z M 3.796875 -4.34375 "/></g></g></g><g fill="#000000" fill-opacity="1"><g transform="translate(393.370215, 445.008468)"><g><path d="M 2.265625 -7.59375 L 2.265625 -5.828125 C 2.265625 -5.617188 2.257812 -5.414062 2.25 -5.21875 C 2.238281 -5.019531 2.222656 -4.863281 2.203125 -4.75 L 2.265625 -4.75 C 2.410156 -4.976562 2.609375 -5.171875 2.859375 -5.328125 C 3.109375 -5.484375 3.425781 -5.5625 3.8125 -5.5625 C 4.425781 -5.5625 4.921875 -5.320312 5.296875 -4.84375 C 5.679688 -4.363281 5.875 -3.660156 5.875 -2.734375 C 5.875 -1.804688 5.679688 -1.101562 5.296875 -0.625 C 4.910156 -0.144531 4.40625 0.09375 3.78125 0.09375 C 3.382812 0.09375 3.066406 0.0234375 2.828125 -0.109375 C 2.597656 -0.253906 2.410156 -0.414062 2.265625 -0.59375 L 2.171875 -0.59375 L 1.921875 0 L 0.78125 0 L 0.78125 -7.59375 Z M 3.34375 -4.375 C 2.957031 -4.375 2.679688 -4.25 2.515625 -4 C 2.359375 -3.757812 2.273438 -3.394531 2.265625 -2.90625 L 2.265625 -2.75 C 2.265625 -2.21875 2.34375 -1.8125 2.5 -1.53125 C 2.65625 -1.25 2.941406 -1.109375 3.359375 -1.109375 C 3.660156 -1.109375 3.898438 -1.25 4.078125 -1.53125 C 4.265625 -1.8125 4.359375 -2.222656 4.359375 -2.765625 C 4.359375 -3.296875 4.265625 -3.695312 4.078125 -3.96875 C 3.898438 -4.238281 3.65625 -4.375 3.34375 -4.375 Z M 3.34375 -4.375 "/></g></g></g><g fill="#000000" fill-opacity="1"><g transform="translate(400.097058, 445.008468)"><g><path d="M 1.34375 0 C 1.019531 0 0.773438 -0.078125 0.609375 -0.234375 C 0.453125 -0.398438 0.375 -0.617188 0.375 -0.890625 C 0.375 -1.191406 0.457031 -1.398438 0.625 -1.515625 C 0.800781 -1.628906 1.003906 -1.6875 1.234375 -1.6875 C 1.585938 -1.6875 1.851562 -1.609375 2.03125 -1.453125 C 2.207031 -1.296875 2.296875 -1.085938 2.296875 -0.828125 C 2.296875 -0.578125 2.207031 -0.375 2.03125 -0.21875 C 1.851562 -0.0703125 1.625 0 1.34375 0 Z M 1.34375 0 "/></g></g></g><g fill="#000000" fill-opacity="1"><g transform="translate(403.095734, 445.008468)"><g><path d="M 4.59375 -1.625 C 4.59375 -1.070312 4.394531 -0.644531 4 -0.34375 C 3.613281 -0.0507812 3.035156 0.09375 2.265625 0.09375 C 1.878906 0.09375 1.550781 0.0664062 1.28125 0.015625 C 1.007812 -0.0234375 0.734375 -0.101562 0.453125 -0.21875 L 0.453125 -1.453125 C 0.753906 -1.316406 1.070312 -1.203125 1.40625 -1.109375 C 1.75 -1.023438 2.050781 -0.984375 2.3125 -0.984375 C 2.59375 -0.984375 2.796875 -1.023438 2.921875 -1.109375 C 3.054688 -1.203125 3.125 -1.316406 3.125 -1.453125 C 3.125 -1.546875 3.097656 -1.628906 3.046875 -1.703125 C 2.992188 -1.773438 2.882812 -1.859375 2.71875 -1.953125 C 2.550781 -2.046875 2.289062 -2.164062 1.9375 -2.3125 C 1.59375 -2.46875 1.3125 -2.613281 1.09375 -2.75 C 0.875 -2.894531 0.710938 -3.066406 0.609375 -3.265625 C 0.503906 -3.472656 0.453125 -3.734375 0.453125 -4.046875 C 0.453125 -4.546875 0.644531 -4.921875 1.03125 -5.171875 C 1.425781 -5.429688 1.953125 -5.5625 2.609375 -5.5625 C 2.953125 -5.5625 3.273438 -5.523438 3.578125 -5.453125 C 3.890625 -5.390625 4.207031 -5.28125 4.53125 -5.125 L 4.078125 -4.0625 C 3.816406 -4.175781 3.5625 -4.269531 3.3125 -4.34375 C 3.070312 -4.414062 2.832031 -4.453125 2.59375 -4.453125 C 2.15625 -4.453125 1.9375 -4.332031 1.9375 -4.09375 C 1.9375 -4.007812 1.960938 -3.929688 2.015625 -3.859375 C 2.066406 -3.796875 2.175781 -3.722656 2.34375 -3.640625 C 2.507812 -3.554688 2.75 -3.445312 3.0625 -3.3125 C 3.382812 -3.1875 3.65625 -3.054688 3.875 -2.921875 C 4.101562 -2.785156 4.28125 -2.613281 4.40625 -2.40625 C 4.53125 -2.195312 4.59375 -1.9375 4.59375 -1.625 Z M 4.59375 -1.625 "/></g></g></g><g fill="#000000" fill-opacity="1"><g transform="translate(408.463243, 445.008468)"><g><path d="M 2.078125 0 L 0 -5.453125 L 1.5625 -5.453125 L 2.609375 -2.34375 C 2.671875 -2.15625 2.71875 -1.960938 2.75 -1.765625 C 2.78125 -1.566406 2.800781 -1.390625 2.8125 -1.234375 L 2.859375 -1.234375 C 2.878906 -1.585938 2.953125 -1.957031 3.078125 -2.34375 L 4.125 -5.453125 L 5.6875 -5.453125 L 3.609375 0 Z M 2.078125 0 "/></g></g></g><g fill="#000000" fill-opacity="1"><g transform="translate(414.550401, 445.008468)"><g><path d="M 2.546875 -5.5625 C 3.222656 -5.5625 3.75 -5.296875 4.125 -4.765625 L 4.171875 -4.765625 L 4.296875 -5.453125 L 5.546875 -5.453125 L 5.546875 0.015625 C 5.546875 0.796875 5.316406 1.390625 4.859375 1.796875 C 4.398438 2.203125 3.71875 2.40625 2.8125 2.40625 C 2.425781 2.40625 2.066406 2.378906 1.734375 2.328125 C 1.410156 2.285156 1.09375 2.203125 0.78125 2.078125 L 0.78125 0.890625 C 1.445312 1.171875 2.15625 1.3125 2.90625 1.3125 C 3.675781 1.3125 4.0625 0.894531 4.0625 0.0625 L 4.0625 -0.046875 C 4.0625 -0.148438 4.0625 -0.257812 4.0625 -0.375 C 4.070312 -0.5 4.082031 -0.609375 4.09375 -0.703125 L 4.0625 -0.703125 C 3.875 -0.421875 3.648438 -0.21875 3.390625 -0.09375 C 3.128906 0.03125 2.835938 0.09375 2.515625 0.09375 C 1.867188 0.09375 1.363281 -0.148438 1 -0.640625 C 0.632812 -1.140625 0.453125 -1.832031 0.453125 -2.71875 C 0.453125 -3.613281 0.632812 -4.3125 1 -4.8125 C 1.375 -5.3125 1.890625 -5.5625 2.546875 -5.5625 Z M 3.015625 -4.34375 C 2.316406 -4.34375 1.96875 -3.796875 1.96875 -2.703125 C 1.96875 -1.609375 2.328125 -1.0625 3.046875 -1.0625 C 3.421875 -1.0625 3.695312 -1.171875 3.875 -1.390625 C 4.0625 -1.609375 4.15625 -1.988281 4.15625 -2.53125 L 4.15625 -2.703125 C 4.15625 -3.296875 4.066406 -3.71875 3.890625 -3.96875 C 3.710938 -4.21875 3.421875 -4.34375 3.015625 -4.34375 Z M 3.015625 -4.34375 "/></g></g></g><g fill="#000000" fill-opacity="1"><g transform="translate(384.403414, 458.507147)"><g><path d="M 1.53125 -7.59375 C 1.75 -7.59375 1.9375 -7.539062 2.09375 -7.4375 C 2.257812 -7.34375 2.34375 -7.15625 2.34375 -6.875 C 2.34375 -6.59375 2.257812 -6.398438 2.09375 -6.296875 C 1.9375 -6.191406 1.75 -6.140625 1.53125 -6.140625 C 1.300781 -6.140625 1.109375 -6.191406 0.953125 -6.296875 C 0.796875 -6.398438 0.71875 -6.59375 0.71875 -6.875 C 0.71875 -7.15625 0.796875 -7.34375 0.953125 -7.4375 C 1.109375 -7.539062 1.300781 -7.59375 1.53125 -7.59375 Z M 2.265625 -5.453125 L 2.265625 0 L 0.78125 0 L 0.78125 -5.453125 Z M 2.265625 -5.453125 "/></g></g></g><g fill="#000000" fill-opacity="1"><g transform="translate(387.851868, 458.507147)"><g><path d="M 7.1875 -5.5625 C 7.8125 -5.5625 8.28125 -5.398438 8.59375 -5.078125 C 8.90625 -4.765625 9.0625 -4.257812 9.0625 -3.5625 L 9.0625 0 L 7.578125 0 L 7.578125 -3.1875 C 7.578125 -3.976562 7.304688 -4.375 6.765625 -4.375 C 6.367188 -4.375 6.085938 -4.234375 5.921875 -3.953125 C 5.753906 -3.671875 5.671875 -3.265625 5.671875 -2.734375 L 5.671875 0 L 4.1875 0 L 4.1875 -3.1875 C 4.1875 -3.976562 3.910156 -4.375 3.359375 -4.375 C 2.941406 -4.375 2.65625 -4.21875 2.5 -3.90625 C 2.34375 -3.59375 2.265625 -3.144531 2.265625 -2.5625 L 2.265625 0 L 0.78125 0 L 0.78125 -5.453125 L 1.921875 -5.453125 L 2.125 -4.765625 L 2.203125 -4.765625 C 2.367188 -5.046875 2.59375 -5.25 2.875 -5.375 C 3.164062 -5.5 3.472656 -5.5625 3.796875 -5.5625 C 4.191406 -5.5625 4.523438 -5.492188 4.796875 -5.359375 C 5.078125 -5.234375 5.296875 -5.035156 5.453125 -4.765625 L 5.578125 -4.765625 C 5.742188 -5.046875 5.972656 -5.25 6.265625 -5.375 C 6.566406 -5.5 6.875 -5.5625 7.1875 -5.5625 Z M 7.1875 -5.5625 "/></g></g></g><g fill="#000000" fill-opacity="1"><g transform="translate(398.066987, 458.507147)"><g><path d="M 3.8125 -5.5625 C 4.425781 -5.5625 4.921875 -5.320312 5.296875 -4.84375 C 5.679688 -4.363281 5.875 -3.660156 5.875 -2.734375 C 5.875 -1.804688 5.675781 -1.101562 5.28125 -0.625 C 4.894531 -0.144531 4.394531 0.09375 3.78125 0.09375 C 3.382812 0.09375 3.066406 0.0234375 2.828125 -0.109375 C 2.597656 -0.253906 2.410156 -0.414062 2.265625 -0.59375 L 2.1875 -0.59375 C 2.238281 -0.320312 2.265625 -0.0546875 2.265625 0.203125 L 2.265625 2.40625 L 0.78125 2.40625 L 0.78125 -5.453125 L 1.984375 -5.453125 L 2.203125 -4.75 L 2.265625 -4.75 C 2.410156 -4.96875 2.609375 -5.15625 2.859375 -5.3125 C 3.109375 -5.476562 3.425781 -5.5625 3.8125 -5.5625 Z M 3.34375 -4.375 C 2.957031 -4.375 2.679688 -4.25 2.515625 -4 C 2.359375 -3.757812 2.273438 -3.394531 2.265625 -2.90625 L 2.265625 -2.75 C 2.265625 -2.21875 2.34375 -1.8125 2.5 -1.53125 C 2.65625 -1.25 2.941406 -1.109375 3.359375 -1.109375 C 3.703125 -1.109375 3.953125 -1.25 4.109375 -1.53125 C 4.273438 -1.8125 4.359375 -2.222656 4.359375 -2.765625 C 4.359375 -3.835938 4.019531 -4.375 3.34375 -4.375 Z M 3.34375 -4.375 "/></g></g></g><g fill="#000000" fill-opacity="1"><g transform="translate(404.793829, 458.507147)"><g><path d="M 1.34375 0 C 1.019531 0 0.773438 -0.078125 0.609375 -0.234375 C 0.453125 -0.398438 0.375 -0.617188 0.375 -0.890625 C 0.375 -1.191406 0.457031 -1.398438 0.625 -1.515625 C 0.800781 -1.628906 1.003906 -1.6875 1.234375 -1.6875 C 1.585938 -1.6875 1.851562 -1.609375 2.03125 -1.453125 C 2.207031 -1.296875 2.296875 -1.085938 2.296875 -0.828125 C 2.296875 -0.578125 2.207031 -0.375 2.03125 -0.21875 C 1.851562 -0.0703125 1.625 0 1.34375 0 Z M 1.34375 0 "/></g></g></g><g fill="#000000" fill-opacity="1"><g transform="translate(407.792506, 458.507147)"><g><path d="M 4.59375 -1.625 C 4.59375 -1.070312 4.394531 -0.644531 4 -0.34375 C 3.613281 -0.0507812 3.035156 0.09375 2.265625 0.09375 C 1.878906 0.09375 1.550781 0.0664062 1.28125 0.015625 C 1.007812 -0.0234375 0.734375 -0.101562 0.453125 -0.21875 L 0.453125 -1.453125 C 0.753906 -1.316406 1.070312 -1.203125 1.40625 -1.109375 C 1.75 -1.023438 2.050781 -0.984375 2.3125 -0.984375 C 2.59375 -0.984375 2.796875 -1.023438 2.921875 -1.109375 C 3.054688 -1.203125 3.125 -1.316406 3.125 -1.453125 C 3.125 -1.546875 3.097656 -1.628906 3.046875 -1.703125 C 2.992188 -1.773438 2.882812 -1.859375 2.71875 -1.953125 C 2.550781 -2.046875 2.289062 -2.164062 1.9375 -2.3125 C 1.59375 -2.46875 1.3125 -2.613281 1.09375 -2.75 C 0.875 -2.894531 0.710938 -3.066406 0.609375 -3.265625 C 0.503906 -3.472656 0.453125 -3.734375 0.453125 -4.046875 C 0.453125 -4.546875 0.644531 -4.921875 1.03125 -5.171875 C 1.425781 -5.429688 1.953125 -5.5625 2.609375 -5.5625 C 2.953125 -5.5625 3.273438 -5.523438 3.578125 -5.453125 C 3.890625 -5.390625 4.207031 -5.28125 4.53125 -5.125 L 4.078125 -4.0625 C 3.816406 -4.175781 3.5625 -4.269531 3.3125 -4.34375 C 3.070312 -4.414062 2.832031 -4.453125 2.59375 -4.453125 C 2.15625 -4.453125 1.9375 -4.332031 1.9375 -4.09375 C 1.9375 -4.007812 1.960938 -3.929688 2.015625 -3.859375 C 2.066406 -3.796875 2.175781 -3.722656 2.34375 -3.640625 C 2.507812 -3.554688 2.75 -3.445312 3.0625 -3.3125 C 3.382812 -3.1875 3.65625 -3.054688 3.875 -2.921875 C 4.101562 -2.785156 4.28125 -2.613281 4.40625 -2.40625 C 4.53125 -2.195312 4.59375 -1.9375 4.59375 -1.625 Z M 4.59375 -1.625 "/></g></g></g><g fill="#000000" fill-opacity="1"><g transform="translate(413.160015, 458.507147)"><g><path d="M 2.078125 0 L 0 -5.453125 L 1.5625 -5.453125 L 2.609375 -2.34375 C 2.671875 -2.15625 2.71875 -1.960938 2.75 -1.765625 C 2.78125 -1.566406 2.800781 -1.390625 2.8125 -1.234375 L 2.859375 -1.234375 C 2.878906 -1.585938 2.953125 -1.957031 3.078125 -2.34375 L 4.125 -5.453125 L 5.6875 -5.453125 L 3.609375 0 Z M 2.078125 0 "/></g></g></g><g fill="#000000" fill-opacity="1"><g transform="translate(419.247173, 458.507147)"><g><path d="M 2.546875 -5.5625 C 3.222656 -5.5625 3.75 -5.296875 4.125 -4.765625 L 4.171875 -4.765625 L 4.296875 -5.453125 L 5.546875 -5.453125 L 5.546875 0.015625 C 5.546875 0.796875 5.316406 1.390625 4.859375 1.796875 C 4.398438 2.203125 3.71875 2.40625 2.8125 2.40625 C 2.425781 2.40625 2.066406 2.378906 1.734375 2.328125 C 1.410156 2.285156 1.09375 2.203125 0.78125 2.078125 L 0.78125 0.890625 C 1.445312 1.171875 2.15625 1.3125 2.90625 1.3125 C 3.675781 1.3125 4.0625 0.894531 4.0625 0.0625 L 4.0625 -0.046875 C 4.0625 -0.148438 4.0625 -0.257812 4.0625 -0.375 C 4.070312 -0.5 4.082031 -0.609375 4.09375 -0.703125 L 4.0625 -0.703125 C 3.875 -0.421875 3.648438 -0.21875 3.390625 -0.09375 C 3.128906 0.03125 2.835938 0.09375 2.515625 0.09375 C 1.867188 0.09375 1.363281 -0.148438 1 -0.640625 C 0.632812 -1.140625 0.453125 -1.832031 0.453125 -2.71875 C 0.453125 -3.613281 0.632812 -4.3125 1 -4.8125 C 1.375 -5.3125 1.890625 -5.5625 2.546875 -5.5625 Z M 3.015625 -4.34375 C 2.316406 -4.34375 1.96875 -3.796875 1.96875 -2.703125 C 1.96875 -1.609375 2.328125 -1.0625 3.046875 -1.0625 C 3.421875 -1.0625 3.695312 -1.171875 3.875 -1.390625 C 4.0625 -1.609375 4.15625 -1.988281 4.15625 -2.53125 L 4.15625 -2.703125 C 4.15625 -3.296875 4.066406 -3.71875 3.890625 -3.96875 C 3.710938 -4.21875 3.421875 -4.34375 3.015625 -4.34375 Z M 3.015625 -4.34375 "/></g></g></g><g fill="#000000" fill-opacity="1"><g transform="translate(386.618037, 472.005826)"><g><path d="M 2.078125 0 L 0 -5.453125 L 1.5625 -5.453125 L 2.609375 -2.34375 C 2.671875 -2.15625 2.71875 -1.960938 2.75 -1.765625 C 2.78125 -1.566406 2.800781 -1.390625 2.8125 -1.234375 L 2.859375 -1.234375 C 2.878906 -1.585938 2.953125 -1.957031 3.078125 -2.34375 L 4.125 -5.453125 L 5.6875 -5.453125 L 3.609375 0 Z M 2.078125 0 "/></g></g></g><g fill="#000000" fill-opacity="1"><g transform="translate(392.705195, 472.005826)"><g><path d="M 3.015625 -5.5625 C 3.753906 -5.5625 4.316406 -5.40625 4.703125 -5.09375 C 5.097656 -4.78125 5.296875 -4.296875 5.296875 -3.640625 L 5.296875 0 L 4.25 0 L 3.953125 -0.734375 L 3.921875 -0.734375 C 3.679688 -0.441406 3.429688 -0.226562 3.171875 -0.09375 C 2.921875 0.03125 2.566406 0.09375 2.109375 0.09375 C 1.617188 0.09375 1.210938 -0.0390625 0.890625 -0.3125 C 0.578125 -0.59375 0.421875 -1.03125 0.421875 -1.625 C 0.421875 -2.207031 0.625 -2.632812 1.03125 -2.90625 C 1.4375 -3.175781 2.046875 -3.332031 2.859375 -3.375 L 3.8125 -3.40625 L 3.8125 -3.640625 C 3.8125 -3.921875 3.734375 -4.128906 3.578125 -4.265625 C 3.429688 -4.398438 3.222656 -4.46875 2.953125 -4.46875 C 2.691406 -4.46875 2.429688 -4.425781 2.171875 -4.34375 C 1.921875 -4.269531 1.671875 -4.175781 1.421875 -4.0625 L 0.9375 -5.078125 C 1.21875 -5.222656 1.535156 -5.335938 1.890625 -5.421875 C 2.253906 -5.515625 2.628906 -5.5625 3.015625 -5.5625 Z M 3.8125 -2.53125 L 3.234375 -2.515625 C 2.753906 -2.492188 2.421875 -2.40625 2.234375 -2.25 C 2.046875 -2.09375 1.953125 -1.882812 1.953125 -1.625 C 1.953125 -1.394531 2.015625 -1.226562 2.140625 -1.125 C 2.273438 -1.03125 2.453125 -0.984375 2.671875 -0.984375 C 2.992188 -0.984375 3.265625 -1.078125 3.484375 -1.265625 C 3.703125 -1.460938 3.8125 -1.734375 3.8125 -2.078125 Z M 3.8125 -2.53125 "/></g></g></g><g fill="#000000" fill-opacity="1"><g transform="translate(399.142176, 472.005826)"><g><path d="M 2.265625 0 L 0.78125 0 L 0.78125 -7.59375 L 2.265625 -7.59375 Z M 2.265625 0 "/></g></g></g><g fill="#000000" fill-opacity="1"><g transform="translate(402.59063, 472.005826)"><g><path d="M 1.34375 0 C 1.019531 0 0.773438 -0.078125 0.609375 -0.234375 C 0.453125 -0.398438 0.375 -0.617188 0.375 -0.890625 C 0.375 -1.191406 0.457031 -1.398438 0.625 -1.515625 C 0.800781 -1.628906 1.003906 -1.6875 1.234375 -1.6875 C 1.585938 -1.6875 1.851562 -1.609375 2.03125 -1.453125 C 2.207031 -1.296875 2.296875 -1.085938 2.296875 -0.828125 C 2.296875 -0.578125 2.207031 -0.375 2.03125 -0.21875 C 1.851562 -0.0703125 1.625 0 1.34375 0 Z M 1.34375 0 "/></g></g></g><g fill="#000000" fill-opacity="1"><g transform="translate(405.589307, 472.005826)"><g><path d="M 4.59375 -1.625 C 4.59375 -1.070312 4.394531 -0.644531 4 -0.34375 C 3.613281 -0.0507812 3.035156 0.09375 2.265625 0.09375 C 1.878906 0.09375 1.550781 0.0664062 1.28125 0.015625 C 1.007812 -0.0234375 0.734375 -0.101562 0.453125 -0.21875 L 0.453125 -1.453125 C 0.753906 -1.316406 1.070312 -1.203125 1.40625 -1.109375 C 1.75 -1.023438 2.050781 -0.984375 2.3125 -0.984375 C 2.59375 -0.984375 2.796875 -1.023438 2.921875 -1.109375 C 3.054688 -1.203125 3.125 -1.316406 3.125 -1.453125 C 3.125 -1.546875 3.097656 -1.628906 3.046875 -1.703125 C 2.992188 -1.773438 2.882812 -1.859375 2.71875 -1.953125 C 2.550781 -2.046875 2.289062 -2.164062 1.9375 -2.3125 C 1.59375 -2.46875 1.3125 -2.613281 1.09375 -2.75 C 0.875 -2.894531 0.710938 -3.066406 0.609375 -3.265625 C 0.503906 -3.472656 0.453125 -3.734375 0.453125 -4.046875 C 0.453125 -4.546875 0.644531 -4.921875 1.03125 -5.171875 C 1.425781 -5.429688 1.953125 -5.5625 2.609375 -5.5625 C 2.953125 -5.5625 3.273438 -5.523438 3.578125 -5.453125 C 3.890625 -5.390625 4.207031 -5.28125 4.53125 -5.125 L 4.078125 -4.0625 C 3.816406 -4.175781 3.5625 -4.269531 3.3125 -4.34375 C 3.070312 -4.414062 2.832031 -4.453125 2.59375 -4.453125 C 2.15625 -4.453125 1.9375 -4.332031 1.9375 -4.09375 C 1.9375 -4.007812 1.960938 -3.929688 2.015625 -3.859375 C 2.066406 -3.796875 2.175781 -3.722656 2.34375 -3.640625 C 2.507812 -3.554688 2.75 -3.445312 3.0625 -3.3125 C 3.382812 -3.1875 3.65625 -3.054688 3.875 -2.921875 C 4.101562 -2.785156 4.28125 -2.613281 4.40625 -2.40625 C 4.53125 -2.195312 4.59375 -1.9375 4.59375 -1.625 Z M 4.59375 -1.625 "/></g></g></g><g fill="#000000" fill-opacity="1"><g transform="translate(410.956816, 472.005826)"><g><path d="M 2.078125 0 L 0 -5.453125 L 1.5625 -5.453125 L 2.609375 -2.34375 C 2.671875 -2.15625 2.71875 -1.960938 2.75 -1.765625 C 2.78125 -1.566406 2.800781 -1.390625 2.8125 -1.234375 L 2.859375 -1.234375 C 2.878906 -1.585938 2.953125 -1.957031 3.078125 -2.34375 L 4.125 -5.453125 L 5.6875 -5.453125 L 3.609375 0 Z M 2.078125 0 "/></g></g></g><g fill="#000000" fill-opacity="1"><g transform="translate(417.043974, 472.005826)"><g><path d="M 2.546875 -5.5625 C 3.222656 -5.5625 3.75 -5.296875 4.125 -4.765625 L 4.171875 -4.765625 L 4.296875 -5.453125 L 5.546875 -5.453125 L 5.546875 0.015625 C 5.546875 0.796875 5.316406 1.390625 4.859375 1.796875 C 4.398438 2.203125 3.71875 2.40625 2.8125 2.40625 C 2.425781 2.40625 2.066406 2.378906 1.734375 2.328125 C 1.410156 2.285156 1.09375 2.203125 0.78125 2.078125 L 0.78125 0.890625 C 1.445312 1.171875 2.15625 1.3125 2.90625 1.3125 C 3.675781 1.3125 4.0625 0.894531 4.0625 0.0625 L 4.0625 -0.046875 C 4.0625 -0.148438 4.0625 -0.257812 4.0625 -0.375 C 4.070312 -0.5 4.082031 -0.609375 4.09375 -0.703125 L 4.0625 -0.703125 C 3.875 -0.421875 3.648438 -0.21875 3.390625 -0.09375 C 3.128906 0.03125 2.835938 0.09375 2.515625 0.09375 C 1.867188 0.09375 1.363281 -0.148438 1 -0.640625 C 0.632812 -1.140625 0.453125 -1.832031 0.453125 -2.71875 C 0.453125 -3.613281 0.632812 -4.3125 1 -4.8125 C 1.375 -5.3125 1.890625 -5.5625 2.546875 -5.5625 Z M 3.015625 -4.34375 C 2.316406 -4.34375 1.96875 -3.796875 1.96875 -2.703125 C 1.96875 -1.609375 2.328125 -1.0625 3.046875 -1.0625 C 3.421875 -1.0625 3.695312 -1.171875 3.875 -1.390625 C 4.0625 -1.609375 4.15625 -1.988281 4.15625 -2.53125 L 4.15625 -2.703125 C 4.15625 -3.296875 4.066406 -3.71875 3.890625 -3.96875 C 3.710938 -4.21875 3.421875 -4.34375 3.015625 -4.34375 Z M 3.015625 -4.34375 "/></g></g></g></svg>