<svg xmlns="http://www.w3.org/2000/svg" width="40" height="40" viewBox="0 0 40 40" fill="none">
<path d="M 13.00 31.00 L 12.00 32.00 L 12.00 33.00 L 13.00 33.00 Z M 20.00 31.00 L 19.00 31.00 L 18.00 30.00 L 17.00 31.00 L 15.00 31.00 L 15.00 33.00 L 17.00 33.00 L 17.00 32.00 L 18.00 31.00 L 19.00 32.00 L 20.00 32.00 Z M 20.00 6.00 L 17.00 6.00 L 16.00 7.00 L 15.00 7.00 L 14.00 8.00 L 14.00 9.00 L 13.00 10.00 L 13.00 16.00 L 11.00 18.00 L 11.00 19.00 L 9.00 21.00 L 9.00 22.00 L 8.00 23.00 L 8.00 24.00 L 5.00 27.00 L 5.00 28.00 L 4.00 29.00 L 4.00 30.00 L 6.00 32.00 L 8.00 32.00 L 11.00 29.00 L 11.00 28.00 L 12.00 27.00 L 12.00 26.00 L 14.00 24.00 L 14.00 23.00 L 16.00 21.00 L 16.00 20.00 L 19.00 17.00 L 21.00 17.00 L 24.00 14.00 L 24.00 9.00 L 23.00 9.00 L 20.00 12.00 L 19.00 12.00 L 18.00 11.00 L 18.00 10.00 L 19.00 9.00 L 19.00 8.00 L 20.00 7.00 Z M 5.00 30.00 L 6.00 29.00 L 7.00 30.00 L 6.00 31.00 Z M 5.00 28.00 L 6.00 27.00 L 7.00 28.00 L 6.00 29.00 Z M 23.00 10.00 L 24.00 11.00 L 24.00 13.00 L 21.00 16.00 L 20.00 16.00 L 19.00 17.00 L 18.00 17.00 L 15.00 20.00 L 15.00 21.00 L 14.00 22.00 L 14.00 23.00 L 12.00 25.00 L 12.00 26.00 L 11.00 27.00 L 10.00 27.00 L 10.00 29.00 L 9.00 30.00 L 8.00 29.00 L 8.00 28.00 L 7.00 28.00 L 6.00 27.00 L 7.00 26.00 L 7.00 25.00 L 8.00 24.00 L 9.00 24.00 L 9.00 23.00 L 10.00 22.00 L 10.00 21.00 L 12.00 19.00 L 12.00 18.00 L 14.00 16.00 L 14.00 10.00 L 17.00 7.00 L 18.00 8.00 L 18.00 9.00 L 17.00 10.00 L 17.00 12.00 L 18.00 12.00 L 19.00 13.00 L 21.00 13.00 L 21.00 12.00 Z M 17.00 7.00 L 18.00 6.00 L 19.00 7.00 L 18.00 8.00 Z" fill="#333333" fill-rule="evenodd"/>
<path d="M 34.00 13.00 L 32.00 13.00 L 30.00 15.00 L 29.00 15.00 L 28.00 16.00 L 28.00 17.00 L 29.00 18.00 L 29.00 19.00 L 28.00 20.00 L 28.00 21.00 L 26.00 23.00 L 26.00 24.00 L 22.00 28.00 L 21.00 28.00 L 20.00 29.00 L 20.00 30.00 L 21.00 31.00 L 22.00 31.00 L 23.00 30.00 L 24.00 30.00 L 29.00 25.00 L 29.00 24.00 L 31.00 22.00 L 31.00 21.00 L 33.00 19.00 L 35.00 19.00 L 35.00 17.00 L 34.00 16.00 Z M 23.00 28.00 L 24.00 27.00 L 25.00 28.00 L 24.00 29.00 Z M 24.00 27.00 L 25.00 26.00 L 26.00 27.00 L 25.00 28.00 Z M 25.00 26.00 L 26.00 25.00 L 27.00 26.00 L 26.00 27.00 Z M 28.00 22.00 L 29.00 23.00 L 29.00 24.00 L 27.00 26.00 L 26.00 25.00 L 26.00 24.00 Z M 30.00 19.00 L 31.00 20.00 L 31.00 21.00 L 29.00 23.00 L 28.00 22.00 L 28.00 21.00 Z M 33.00 14.00 L 34.00 15.00 L 34.00 17.00 L 33.00 18.00 L 32.00 18.00 L 32.00 19.00 L 31.00 20.00 L 30.00 19.00 L 30.00 17.00 L 29.00 16.00 L 30.00 15.00 L 31.00 15.00 L 32.00 14.00 Z" fill="#f06aa6" fill-rule="evenodd"/>
<path d="M 8.00 25.00 L 9.00 26.00 L 11.00 26.00 L 10.00 25.00 Z" fill="#78cbe6" fill-rule="evenodd"/>
</svg>