<svg xmlns="http://www.w3.org/2000/svg" width="40" height="40" viewBox="0 0 40 40" fill="none">
<path d="M 19.00 23.00 L 19.00 24.00 L 20.00 24.00 Z M 5.00 9.00 L 6.00 8.00 L 7.00 8.00 L 8.00 9.00 L 7.00 8.00 L 6.00 8.00 Z M 29.00 5.00 L 28.00 6.00 L 29.00 7.00 L 28.00 8.00 L 27.00 8.00 L 27.00 9.00 L 25.00 11.00 L 24.00 10.00 L 23.00 10.00 L 22.00 9.00 L 15.00 9.00 L 11.00 13.00 L 9.00 11.00 L 8.00 11.00 L 11.00 14.00 L 11.00 21.00 L 10.00 22.00 L 9.00 22.00 L 8.00 23.00 L 9.00 23.00 L 10.00 22.00 L 11.00 22.00 L 12.00 21.00 L 14.00 23.00 L 14.00 24.00 L 15.00 25.00 L 15.00 30.00 L 16.00 31.00 L 16.00 32.00 L 18.00 34.00 L 19.00 34.00 L 20.00 33.00 L 21.00 33.00 L 21.00 31.00 L 22.00 30.00 L 21.00 29.00 L 22.00 28.00 L 22.00 27.00 L 23.00 26.00 L 23.00 24.00 L 24.00 23.00 L 24.00 22.00 L 27.00 19.00 L 28.00 20.00 L 29.00 20.00 L 31.00 22.00 L 32.00 22.00 L 33.00 23.00 L 32.00 24.00 L 33.00 25.00 L 34.00 24.00 L 33.00 23.00 L 33.00 22.00 L 32.00 22.00 L 31.00 21.00 L 31.00 20.00 L 29.00 20.00 L 28.00 19.00 L 27.00 19.00 L 26.00 18.00 L 27.00 17.00 L 27.00 16.00 L 29.00 14.00 L 30.00 14.00 L 32.00 12.00 L 31.00 12.00 L 30.00 13.00 L 29.00 13.00 L 27.00 15.00 L 26.00 14.00 L 26.00 13.00 L 25.00 12.00 L 28.00 9.00 L 28.00 8.00 L 29.00 7.00 L 28.00 6.00 Z M 18.00 30.00 L 19.00 29.00 L 20.00 29.00 L 21.00 30.00 L 20.00 31.00 L 19.00 31.00 Z M 15.00 30.00 L 16.00 29.00 L 17.00 29.00 L 18.00 30.00 L 17.00 31.00 L 16.00 31.00 Z M 17.00 9.00 L 21.00 9.00 L 25.00 13.00 L 25.00 14.00 L 26.00 15.00 L 26.00 19.00 L 24.00 21.00 L 24.00 22.00 L 22.00 24.00 L 23.00 25.00 L 22.00 26.00 L 22.00 28.00 L 21.00 29.00 L 20.00 28.00 L 19.00 29.00 L 17.00 29.00 L 16.00 28.00 L 16.00 27.00 L 15.00 26.00 L 15.00 24.00 L 14.00 23.00 L 14.00 22.00 L 13.00 22.00 L 12.00 21.00 L 12.00 19.00 L 11.00 18.00 L 11.00 15.00 L 12.00 14.00 L 12.00 13.00 L 15.00 10.00 L 16.00 10.00 Z" fill="#333333" fill-rule="evenodd"/>
<path d="M 4.00 23.00 L 4.00 24.00 L 5.00 25.00 L 6.00 25.00 L 7.00 24.00 L 7.00 23.00 Z M 16.00 16.00 L 15.00 17.00 L 15.00 18.00 L 16.00 19.00 L 17.00 19.00 L 18.00 20.00 L 17.00 21.00 L 17.00 25.00 L 18.00 26.00 L 18.00 27.00 L 20.00 27.00 L 20.00 25.00 L 19.00 25.00 L 18.00 24.00 L 18.00 23.00 L 19.00 22.00 L 20.00 23.00 L 20.00 20.00 L 22.00 18.00 L 22.00 16.00 L 20.00 16.00 L 20.00 17.00 L 19.00 18.00 L 17.00 16.00 Z M 18.00 20.00 L 19.00 19.00 L 20.00 20.00 L 19.00 21.00 Z M 20.00 17.00 L 21.00 16.00 L 22.00 17.00 L 21.00 18.00 Z M 32.00 11.00 L 33.00 12.00 L 35.00 12.00 L 35.00 11.00 L 34.00 10.00 L 33.00 10.00 Z" fill="#f06aa6" fill-rule="evenodd"/>
<path d="M 19.00 30.00 L 20.00 30.00 Z M 17.00 30.00 L 16.00 30.00 L 15.00 31.00 L 16.00 30.00 Z M 21.00 28.00 L 22.00 29.00 Z M 17.00 28.00 L 19.00 28.00 Z M 34.00 23.00 L 35.00 24.00 L 34.00 25.00 L 35.00 24.00 Z M 6.00 9.00 L 5.00 10.00 L 6.00 11.00 L 7.00 11.00 L 8.00 10.00 L 7.00 9.00 Z M 18.00 8.00 L 19.00 8.00 Z M 27.00 5.00 L 27.00 7.00 L 28.00 7.00 L 29.00 6.00 L 28.00 5.00 Z M 27.00 6.00 L 28.00 5.00 L 29.00 6.00 L 28.00 7.00 Z" fill="#78cbe6" fill-rule="evenodd"/>
</svg>