<svg xmlns="http://www.w3.org/2000/svg" width="40" height="40" viewBox="0 0 40 40" fill="none">
<path d="M 6.00 20.00 L 6.00 21.00 Z M 6.00 10.00 L 6.00 11.00 L 7.00 12.00 L 6.00 11.00 Z M 17.00 4.00 L 16.00 5.00 L 15.00 5.00 L 11.00 9.00 L 11.00 10.00 L 10.00 11.00 L 10.00 13.00 L 9.00 14.00 L 9.00 15.00 L 10.00 16.00 L 10.00 19.00 L 13.00 22.00 L 13.00 23.00 L 14.00 24.00 L 14.00 25.00 L 15.00 26.00 L 15.00 32.00 L 16.00 32.00 L 19.00 35.00 L 20.00 35.00 L 24.00 31.00 L 24.00 25.00 L 25.00 24.00 L 25.00 23.00 L 28.00 20.00 L 28.00 19.00 L 29.00 18.00 L 29.00 11.00 L 28.00 10.00 L 28.00 9.00 L 24.00 5.00 L 22.00 5.00 L 21.00 4.00 Z M 18.00 33.00 L 19.00 32.00 L 20.00 32.00 L 21.00 33.00 L 20.00 34.00 L 19.00 34.00 Z M 22.00 31.00 L 23.00 30.00 L 24.00 31.00 L 23.00 32.00 Z M 15.00 31.00 L 16.00 30.00 L 17.00 31.00 L 16.00 32.00 Z M 17.00 29.00 L 18.00 28.00 L 22.00 28.00 L 23.00 29.00 L 23.00 30.00 L 22.00 31.00 L 21.00 30.00 L 18.00 30.00 Z M 19.00 4.00 L 20.00 5.00 L 22.00 5.00 L 23.00 6.00 L 24.00 6.00 L 27.00 9.00 L 27.00 10.00 L 28.00 11.00 L 28.00 13.00 L 29.00 14.00 L 29.00 15.00 L 28.00 16.00 L 28.00 19.00 L 25.00 22.00 L 25.00 23.00 L 24.00 24.00 L 24.00 26.00 L 22.00 28.00 L 18.00 28.00 L 17.00 29.00 L 16.00 28.00 L 16.00 27.00 L 15.00 26.00 L 15.00 24.00 L 13.00 22.00 L 13.00 21.00 L 11.00 19.00 L 11.00 18.00 L 10.00 17.00 L 10.00 13.00 L 11.00 12.00 L 11.00 10.00 L 15.00 6.00 L 16.00 6.00 L 17.00 5.00 L 18.00 5.00 Z" fill="#333333" fill-rule="evenodd"/>
<path d="M 32.00 15.00 L 32.00 16.00 L 34.00 16.00 L 34.00 15.00 Z M 5.00 15.00 L 5.00 16.00 L 7.00 16.00 L 7.00 15.00 Z M 19.00 9.00 L 18.00 10.00 L 18.00 18.00 L 19.00 19.00 L 19.00 21.00 L 18.00 22.00 L 19.00 23.00 L 20.00 23.00 L 21.00 22.00 L 19.00 20.00 L 20.00 19.00 L 20.00 18.00 L 21.00 17.00 L 21.00 10.00 L 20.00 9.00 Z M 18.00 11.00 L 19.00 10.00 L 20.00 11.00 L 19.00 12.00 Z" fill="#f06aa6" fill-rule="evenodd"/>
<path d="M 22.00 30.00 L 23.00 31.00 Z M 32.00 20.00 L 33.00 20.00 Z M 33.00 10.00 L 32.00 11.00 L 33.00 11.00 Z" fill="#78cbe6" fill-rule="evenodd"/>
</svg>