<svg xmlns="http://www.w3.org/2000/svg" width="40" height="40" viewBox="0 0 40 40" fill="none">
<path d="M 24.00 35.00 L 29.00 35.00 L 29.00 34.00 L 25.00 34.00 Z M 21.00 24.00 L 21.00 25.00 L 22.00 26.00 L 23.00 26.00 L 22.00 26.00 L 21.00 25.00 Z M 17.00 25.00 L 17.00 29.00 L 19.00 31.00 L 20.00 30.00 L 22.00 32.00 L 23.00 32.00 L 23.00 31.00 L 22.00 30.00 L 22.00 29.00 L 23.00 28.00 L 22.00 29.00 L 22.00 30.00 L 21.00 31.00 L 20.00 30.00 L 19.00 30.00 L 18.00 29.00 L 18.00 25.00 L 19.00 24.00 L 18.00 25.00 Z M 27.00 24.00 L 26.00 23.00 L 26.00 22.00 L 25.00 21.00 L 22.00 21.00 L 21.00 20.00 L 21.00 19.00 L 19.00 17.00 L 18.00 17.00 L 13.00 22.00 L 11.00 22.00 L 8.00 25.00 L 8.00 26.00 L 8.00 25.00 L 9.00 24.00 L 10.00 24.00 L 11.00 23.00 L 12.00 24.00 L 13.00 24.00 L 14.00 25.00 L 14.00 24.00 L 13.00 23.00 L 18.00 18.00 L 19.00 18.00 L 21.00 20.00 L 19.00 22.00 L 21.00 22.00 L 22.00 21.00 L 23.00 21.00 L 24.00 22.00 L 25.00 22.00 Z M 31.00 17.00 L 30.00 17.00 L 28.00 15.00 L 27.00 15.00 L 26.00 16.00 L 25.00 16.00 L 23.00 18.00 L 23.00 19.00 L 24.00 19.00 L 25.00 18.00 L 25.00 17.00 L 27.00 15.00 L 28.00 15.00 L 31.00 18.00 Z M 6.00 4.00 L 6.00 6.00 L 5.00 7.00 L 5.00 24.00 L 6.00 25.00 L 5.00 26.00 L 5.00 30.00 L 6.00 31.00 L 5.00 32.00 L 5.00 33.00 L 7.00 35.00 L 11.00 35.00 L 12.00 34.00 L 13.00 35.00 L 20.00 35.00 L 20.00 34.00 L 7.00 34.00 L 6.00 33.00 L 6.00 10.00 L 7.00 9.00 L 33.00 9.00 L 34.00 10.00 L 33.00 11.00 L 33.00 33.00 L 32.00 34.00 L 31.00 34.00 L 31.00 35.00 L 33.00 35.00 L 34.00 34.00 L 34.00 5.00 L 33.00 4.00 Z M 31.00 6.00 L 32.00 5.00 L 34.00 7.00 L 33.00 8.00 L 32.00 8.00 L 31.00 7.00 Z M 29.00 6.00 L 30.00 5.00 L 31.00 6.00 L 31.00 7.00 L 30.00 8.00 L 29.00 7.00 Z M 26.00 6.00 L 27.00 5.00 L 28.00 6.00 L 28.00 7.00 L 27.00 8.00 L 26.00 7.00 Z M 6.00 6.00 L 7.00 5.00 L 24.00 5.00 L 26.00 7.00 L 25.00 8.00 L 7.00 8.00 L 6.00 7.00 Z" fill="#333333" fill-rule="evenodd"/>
<path d="M 28.00 23.00 L 27.00 23.00 L 26.00 24.00 L 24.00 24.00 L 23.00 25.00 L 25.00 25.00 L 27.00 23.00 L 28.00 24.00 L 28.00 29.00 L 27.00 30.00 L 26.00 30.00 L 25.00 31.00 L 24.00 31.00 L 24.00 32.00 L 25.00 31.00 L 26.00 31.00 L 27.00 30.00 L 28.00 30.00 Z M 10.00 12.00 L 8.00 14.00 L 8.00 15.00 L 10.00 17.00 L 12.00 17.00 L 14.00 15.00 L 13.00 14.00 L 13.00 13.00 L 12.00 12.00 Z M 9.00 14.00 L 10.00 13.00 L 12.00 13.00 L 13.00 14.00 L 13.00 15.00 L 11.00 17.00 L 9.00 15.00 Z" fill="#f06aa6" fill-rule="evenodd"/>
<path d="M 30.00 34.00 L 30.00 35.00 Z M 21.00 35.00 L 23.00 35.00 L 24.00 34.00 L 21.00 34.00 Z M 20.00 31.00 L 21.00 32.00 Z M 22.00 27.00 L 22.00 28.00 L 23.00 29.00 L 23.00 30.00 L 23.00 29.00 L 22.00 28.00 L 23.00 27.00 Z M 17.00 23.00 L 17.00 24.00 L 18.00 24.00 L 19.00 23.00 L 20.00 24.00 L 20.00 25.00 L 20.00 24.00 L 19.00 23.00 Z M 5.00 5.00 L 5.00 6.00 Z" fill="#78cbe6" fill-rule="evenodd"/>
</svg>