<svg xmlns="http://www.w3.org/2000/svg" width="40" height="40" viewBox="0 0 40 40" fill="none">
<path d="M 17.00 27.00 L 17.00 28.00 L 19.00 28.00 L 19.00 27.00 Z M 10.00 25.00 L 9.00 26.00 L 9.00 30.00 L 11.00 30.00 L 12.00 29.00 L 13.00 30.00 L 13.00 29.00 L 12.00 29.00 L 11.00 30.00 L 9.00 28.00 L 9.00 27.00 L 10.00 26.00 L 11.00 26.00 L 12.00 27.00 L 12.00 25.00 Z M 17.00 20.00 L 18.00 20.00 L 19.00 21.00 L 25.00 21.00 L 26.00 20.00 Z M 9.00 18.00 L 9.00 23.00 L 13.00 23.00 L 14.00 22.00 L 13.00 21.00 L 14.00 20.00 L 12.00 22.00 L 11.00 21.00 L 11.00 20.00 L 10.00 19.00 L 11.00 18.00 L 12.00 18.00 Z M 9.00 20.00 L 10.00 19.00 L 11.00 20.00 L 11.00 21.00 L 10.00 22.00 L 9.00 21.00 Z M 17.00 14.00 L 25.00 14.00 L 26.00 13.00 L 18.00 13.00 Z M 9.00 11.00 L 9.00 16.00 L 13.00 16.00 L 13.00 15.00 L 12.00 15.00 L 11.00 16.00 L 9.00 14.00 L 9.00 13.00 L 11.00 11.00 L 12.00 11.00 Z M 8.00 4.00 L 6.00 6.00 L 6.00 33.00 L 8.00 35.00 L 23.00 35.00 L 24.00 34.00 L 25.00 34.00 L 26.00 35.00 L 27.00 35.00 L 29.00 33.00 L 30.00 34.00 L 32.00 32.00 L 31.00 31.00 L 33.00 29.00 L 33.00 28.00 L 32.00 28.00 L 31.00 27.00 L 31.00 26.00 L 32.00 25.00 L 31.00 24.00 L 30.00 24.00 L 29.00 23.00 L 29.00 8.00 L 28.00 8.00 L 27.00 7.00 L 27.00 6.00 L 25.00 4.00 Z M 22.00 34.00 L 23.00 33.00 L 24.00 34.00 L 23.00 35.00 Z M 26.00 33.00 L 27.00 32.00 L 28.00 33.00 L 27.00 34.00 Z M 30.00 29.00 L 31.00 28.00 L 32.00 29.00 L 31.00 30.00 Z M 24.00 25.00 L 25.00 25.00 L 26.00 24.00 L 28.00 24.00 L 29.00 25.00 L 30.00 25.00 L 31.00 26.00 L 31.00 28.00 L 29.00 30.00 L 28.00 30.00 L 29.00 30.00 L 30.00 29.00 L 31.00 30.00 L 31.00 32.00 L 30.00 33.00 L 29.00 32.00 L 28.00 33.00 L 27.00 32.00 L 26.00 33.00 L 24.00 33.00 L 23.00 32.00 L 23.00 30.00 L 22.00 29.00 L 22.00 28.00 L 23.00 27.00 L 23.00 26.00 Z M 25.00 7.00 L 26.00 6.00 L 27.00 7.00 L 27.00 8.00 L 26.00 9.00 L 25.00 8.00 Z M 8.00 5.00 L 24.00 5.00 L 25.00 6.00 L 25.00 8.00 L 26.00 9.00 L 27.00 8.00 L 29.00 10.00 L 29.00 22.00 L 27.00 24.00 L 26.00 23.00 L 25.00 24.00 L 23.00 24.00 L 22.00 25.00 L 22.00 26.00 L 23.00 27.00 L 22.00 28.00 L 21.00 28.00 L 21.00 29.00 L 23.00 31.00 L 22.00 32.00 L 23.00 33.00 L 22.00 34.00 L 8.00 34.00 L 7.00 33.00 L 7.00 6.00 Z" fill="#333333" fill-rule="evenodd"/>
<path d="M 14.00 25.00 L 13.00 26.00 L 13.00 27.00 L 12.00 28.00 L 11.00 28.00 L 10.00 27.00 L 10.00 28.00 L 11.00 29.00 L 14.00 26.00 Z M 10.00 20.00 L 10.00 21.00 Z M 14.00 18.00 L 12.00 20.00 L 12.00 21.00 L 14.00 19.00 Z M 14.00 11.00 L 11.00 14.00 L 10.00 13.00 L 10.00 14.00 L 11.00 15.00 L 14.00 12.00 Z" fill="#f06aa6" fill-rule="evenodd"/>
<path d="M 13.00 28.00 L 14.00 29.00 L 14.00 28.00 Z M 26.00 26.00 L 24.00 28.00 L 24.00 29.00 L 25.00 30.00 L 25.00 31.00 L 28.00 31.00 L 27.00 31.00 L 25.00 29.00 L 25.00 28.00 L 26.00 27.00 L 28.00 27.00 L 29.00 28.00 L 29.00 29.00 L 29.00 27.00 L 28.00 26.00 Z M 14.00 13.00 L 13.00 14.00 L 14.00 15.00 Z" fill="#78cbe6" fill-rule="evenodd"/>
</svg>