<svg xmlns="http://www.w3.org/2000/svg" width="40" height="40" viewBox="0 0 40 40" fill="none">
<path d="M 15.00 35.00 L 16.00 35.00 L 17.00 34.00 L 20.00 34.00 L 15.00 34.00 Z M 11.00 28.00 L 12.00 29.00 L 17.00 29.00 L 17.00 28.00 Z M 8.00 25.00 L 8.00 26.00 L 7.00 27.00 L 7.00 28.00 L 6.00 29.00 L 7.00 29.00 L 8.00 30.00 L 8.00 31.00 L 7.00 32.00 L 6.00 31.00 L 6.00 34.00 L 7.00 35.00 L 9.00 35.00 L 10.00 34.00 L 13.00 34.00 L 8.00 34.00 L 7.00 33.00 L 8.00 32.00 L 8.00 30.00 L 7.00 29.00 L 7.00 27.00 L 8.00 26.00 Z M 14.00 23.00 L 13.00 23.00 L 12.00 24.00 L 14.00 24.00 Z M 6.00 22.00 L 6.00 23.00 L 7.00 23.00 L 7.00 22.00 Z M 11.00 18.00 L 11.00 19.00 L 17.00 19.00 L 17.00 18.00 L 15.00 18.00 L 14.00 19.00 L 13.00 19.00 L 12.00 18.00 Z M 11.00 14.00 L 11.00 15.00 L 23.00 15.00 L 23.00 14.00 Z M 8.00 14.00 L 8.00 15.00 L 6.00 17.00 L 6.00 18.00 L 5.00 19.00 L 6.00 20.00 L 8.00 20.00 L 8.00 19.00 L 7.00 18.00 L 7.00 16.00 L 8.00 15.00 Z M 5.00 19.00 L 6.00 18.00 L 7.00 18.00 L 8.00 19.00 L 7.00 20.00 L 6.00 20.00 Z M 6.00 11.00 L 6.00 12.00 L 7.00 12.00 L 7.00 11.00 Z M 18.00 9.00 L 18.00 10.00 Z M 22.00 4.00 L 22.00 5.00 L 23.00 4.00 L 24.00 5.00 L 24.00 6.00 L 25.00 5.00 L 26.00 5.00 L 27.00 4.00 L 28.00 5.00 L 28.00 18.00 L 27.00 19.00 L 26.00 18.00 L 25.00 18.00 L 24.00 17.00 L 23.00 18.00 L 21.00 18.00 L 18.00 21.00 L 18.00 26.00 L 20.00 28.00 L 21.00 28.00 L 22.00 29.00 L 22.00 28.00 L 23.00 27.00 L 24.00 27.00 L 25.00 28.00 L 25.00 29.00 L 26.00 28.00 L 27.00 28.00 L 28.00 29.00 L 28.00 30.00 L 29.00 31.00 L 29.00 32.00 L 27.00 34.00 L 22.00 34.00 L 22.00 35.00 L 23.00 35.00 L 24.00 34.00 L 26.00 34.00 L 27.00 35.00 L 28.00 35.00 L 29.00 34.00 L 29.00 33.00 L 30.00 32.00 L 32.00 34.00 L 33.00 34.00 L 34.00 33.00 L 34.00 32.00 L 30.00 28.00 L 29.00 28.00 L 28.00 27.00 L 28.00 26.00 L 29.00 25.00 L 29.00 24.00 L 28.00 24.00 L 27.00 23.00 L 28.00 22.00 L 29.00 22.00 L 29.00 21.00 L 28.00 20.00 L 29.00 19.00 L 29.00 5.00 L 28.00 4.00 Z M 31.00 33.00 L 32.00 32.00 L 33.00 33.00 L 32.00 34.00 Z M 30.00 32.00 L 31.00 31.00 L 32.00 32.00 L 31.00 33.00 Z M 31.00 31.00 L 32.00 30.00 L 33.00 31.00 L 32.00 32.00 Z M 28.00 29.00 L 29.00 28.00 L 30.00 28.00 L 31.00 29.00 L 30.00 30.00 L 29.00 30.00 Z M 22.00 20.00 L 25.00 20.00 L 27.00 22.00 L 27.00 25.00 L 25.00 27.00 L 22.00 27.00 L 20.00 25.00 L 20.00 22.00 Z M 27.00 19.00 L 28.00 18.00 L 29.00 19.00 L 28.00 20.00 Z M 22.00 19.00 L 23.00 18.00 L 24.00 19.00 L 23.00 20.00 Z M 23.00 18.00 L 24.00 17.00 L 25.00 18.00 L 24.00 19.00 Z M 16.00 4.00 L 16.00 5.00 L 17.00 5.00 L 17.00 4.00 Z M 6.00 9.00 L 6.00 8.00 L 7.00 7.00 L 8.00 8.00 L 8.00 9.00 L 8.00 8.00 L 7.00 7.00 L 7.00 6.00 L 9.00 4.00 L 10.00 5.00 L 11.00 5.00 L 12.00 4.00 L 13.00 4.00 L 7.00 4.00 L 6.00 5.00 Z" fill="#333333" fill-rule="evenodd"/>
<path d="M 11.00 10.00 L 17.00 10.00 L 16.00 9.00 L 15.00 10.00 L 14.00 9.00 L 13.00 10.00 L 12.00 9.00 Z M 23.00 5.00 L 23.00 10.00 L 24.00 10.00 L 25.00 9.00 L 26.00 10.00 L 27.00 10.00 L 27.00 5.00 L 26.00 6.00 L 26.00 8.00 L 25.00 9.00 L 24.00 9.00 L 23.00 8.00 L 24.00 7.00 L 23.00 6.00 Z" fill="#f06aa6" fill-rule="evenodd"/>
<path d="M 24.00 35.00 L 26.00 35.00 Z M 21.00 34.00 L 20.00 35.00 L 17.00 35.00 L 21.00 35.00 Z M 14.00 34.00 L 13.00 35.00 L 10.00 35.00 L 14.00 35.00 Z M 32.00 31.00 L 31.00 32.00 L 32.00 33.00 L 31.00 32.00 Z M 5.00 30.00 L 5.00 32.00 L 5.00 31.00 L 6.00 30.00 L 7.00 31.00 L 7.00 30.00 Z M 29.00 29.00 L 30.00 29.00 Z M 23.00 28.00 L 23.00 29.00 L 24.00 29.00 L 24.00 28.00 Z M 7.00 24.00 L 6.00 24.00 L 5.00 25.00 L 5.00 26.00 L 6.00 27.00 L 6.00 28.00 L 6.00 27.00 L 7.00 26.00 Z M 5.00 25.00 L 6.00 24.00 L 7.00 25.00 L 6.00 26.00 Z M 28.00 23.00 L 29.00 23.00 Z M 15.00 23.00 L 15.00 24.00 L 16.00 24.00 Z M 12.00 23.00 L 11.00 23.00 L 11.00 24.00 Z M 5.00 20.00 L 6.00 19.00 L 7.00 19.00 L 6.00 19.00 L 5.00 20.00 L 6.00 21.00 L 7.00 21.00 L 6.00 21.00 Z M 13.00 18.00 L 14.00 18.00 Z M 23.00 17.00 L 24.00 18.00 L 23.00 19.00 L 24.00 18.00 Z M 7.00 13.00 L 6.00 13.00 L 5.00 14.00 L 5.00 15.00 L 6.00 16.00 L 7.00 15.00 Z M 5.00 14.00 L 6.00 13.00 L 7.00 14.00 L 6.00 15.00 Z M 5.00 8.00 L 5.00 9.00 L 6.00 10.00 L 7.00 10.00 L 7.00 8.00 L 7.00 9.00 L 6.00 10.00 L 5.00 9.00 Z M 18.00 4.00 L 18.00 5.00 L 21.00 5.00 L 21.00 4.00 L 20.00 5.00 L 19.00 4.00 Z M 15.00 4.00 L 14.00 4.00 L 13.00 5.00 L 12.00 5.00 L 15.00 5.00 Z" fill="#78cbe6" fill-rule="evenodd"/>
</svg>