<svg xmlns="http://www.w3.org/2000/svg" viewBox="0 0 64 64" role="img" aria-label="solution icon">
  <g fill="none" stroke="#2b1430" stroke-width="2.2" stroke-linecap="round" stroke-linejoin="round">
    <!-- puzzle/product structure -->
    <path fill="#f8b6cf" d="M9 34h12a3.2 3.2 0 1 1 6.4 0H39v12a3.2 3.2 0 1 0 0 6.4V59H21a3.2 3.2 0 1 0-6.4 0H9V41a3.2 3.2 0 1 0 0-6.4V34z"/>
    <path d="M21 9h20v13a3.2 3.2 0 1 0 0 6.4V34H27.4a3.2 3.2 0 1 1-6.4 0H9V21L21 9z"/>
    <path d="M21 9v12H9"/>
    <path fill="#ffffff" d="M39 22h16v12a3.2 3.2 0 1 1 0 6.4V54H39v-1.6a3.2 3.2 0 1 1 0-6.4V34h2a3.2 3.2 0 1 0-2-5.6V22z"/>

    <!-- digital/chip area -->
    <rect x="44" y="36" width="10" height="10" rx="2" fill="#d6f4fb"/>
    <path d="M55 26h5"/>
    <path d="M55 31h5"/>
    <path d="M55 50h5"/>
  </g>

  <!-- circuit nodes -->
  <g fill="#ffffff" stroke="#2b1430" stroke-width="2">
    <circle cx="45" cy="14" r="3.2" fill="#f8b6cf"/>
    <circle cx="52" cy="13" r="3.2" fill="#d6f4fb"/>
    <circle cx="58" cy="19" r="3.2" fill="#d6f4fb"/>
    <circle cx="49" cy="22" r="2.6" fill="#ffffff"/>
  </g>

  <g fill="none" stroke="#2b1430" stroke-width="2" stroke-linecap="round" stroke-linejoin="round">
    <path d="M45 22v-4.8"/>
    <path d="M52 22v-5.8"/>
    <path d="M49 24v.5"/>
    <path d="M55 22l3-3"/>
  </g>
</svg>
