<svg xmlns="http://www.w3.org/2000/svg" width="40" height="40" viewBox="0 0 40 40" fill="none">
<path d="M 31.00 16.00 L 31.00 17.00 L 32.00 17.00 Z M 7.00 16.00 L 7.00 17.00 Z M 20.00 13.00 L 21.00 13.00 Z M 19.00 5.00 L 18.00 6.00 L 16.00 6.00 L 14.00 8.00 L 14.00 9.00 L 13.00 10.00 L 13.00 11.00 L 14.00 12.00 L 14.00 15.00 L 13.00 16.00 L 13.00 18.00 L 14.00 19.00 L 14.00 20.00 L 13.00 21.00 L 13.00 27.00 L 14.00 26.00 L 15.00 27.00 L 15.00 28.00 L 18.00 28.00 L 20.00 26.00 L 22.00 28.00 L 25.00 28.00 L 26.00 27.00 L 26.00 24.00 L 25.00 23.00 L 25.00 21.00 L 26.00 20.00 L 26.00 18.00 L 25.00 17.00 L 25.00 15.00 L 26.00 14.00 L 27.00 14.00 L 28.00 15.00 L 28.00 28.00 L 26.00 30.00 L 13.00 30.00 L 11.00 28.00 L 11.00 23.00 L 10.00 22.00 L 11.00 21.00 L 11.00 15.00 L 12.00 14.00 L 10.00 12.00 L 10.00 11.00 L 9.00 11.00 L 8.00 10.00 L 9.00 9.00 L 8.00 10.00 L 11.00 13.00 L 11.00 14.00 L 10.00 15.00 L 10.00 16.00 L 9.00 17.00 L 10.00 18.00 L 10.00 19.00 L 9.00 20.00 L 10.00 21.00 L 10.00 22.00 L 9.00 23.00 L 6.00 23.00 L 6.00 24.00 L 9.00 24.00 L 10.00 25.00 L 10.00 26.00 L 9.00 27.00 L 10.00 28.00 L 10.00 29.00 L 11.00 30.00 L 12.00 30.00 L 13.00 31.00 L 14.00 31.00 L 15.00 30.00 L 16.00 30.00 L 17.00 31.00 L 17.00 32.00 L 17.00 31.00 L 18.00 30.00 L 21.00 30.00 L 22.00 31.00 L 22.00 32.00 L 23.00 32.00 L 23.00 31.00 L 24.00 30.00 L 25.00 30.00 L 26.00 31.00 L 27.00 30.00 L 28.00 30.00 L 29.00 29.00 L 29.00 28.00 L 30.00 27.00 L 29.00 26.00 L 29.00 25.00 L 30.00 24.00 L 35.00 24.00 L 35.00 23.00 L 30.00 23.00 L 29.00 22.00 L 29.00 21.00 L 30.00 20.00 L 29.00 19.00 L 29.00 15.00 L 28.00 14.00 L 28.00 13.00 L 30.00 11.00 L 31.00 11.00 L 31.00 10.00 L 30.00 9.00 L 30.00 10.00 L 28.00 12.00 L 28.00 13.00 L 27.00 14.00 L 26.00 14.00 L 25.00 13.00 L 26.00 12.00 L 25.00 11.00 L 26.00 10.00 L 25.00 9.00 L 25.00 8.00 L 23.00 6.00 L 21.00 6.00 L 20.00 5.00 Z M 28.00 27.00 L 29.00 26.00 L 30.00 27.00 L 29.00 28.00 Z M 9.00 27.00 L 10.00 26.00 L 11.00 27.00 L 10.00 28.00 Z M 18.00 26.00 L 19.00 25.00 L 20.00 26.00 L 19.00 27.00 Z M 28.00 24.00 L 29.00 23.00 L 30.00 24.00 L 29.00 25.00 Z M 24.00 17.00 L 25.00 18.00 L 25.00 19.00 L 26.00 20.00 L 25.00 21.00 L 25.00 26.00 L 24.00 27.00 L 22.00 27.00 L 21.00 26.00 L 22.00 25.00 L 22.00 22.00 L 23.00 21.00 L 23.00 18.00 Z M 15.00 17.00 L 16.00 18.00 L 16.00 21.00 L 17.00 21.00 L 18.00 22.00 L 17.00 23.00 L 18.00 24.00 L 17.00 25.00 L 18.00 26.00 L 17.00 27.00 L 15.00 27.00 L 14.00 26.00 L 14.00 18.00 Z M 13.00 16.00 L 14.00 15.00 L 15.00 16.00 L 14.00 17.00 Z M 21.00 6.00 L 22.00 7.00 L 23.00 7.00 L 25.00 9.00 L 25.00 14.00 L 24.00 15.00 L 24.00 16.00 L 23.00 17.00 L 23.00 18.00 L 22.00 19.00 L 23.00 20.00 L 22.00 21.00 L 21.00 21.00 L 20.00 20.00 L 21.00 21.00 L 19.00 23.00 L 18.00 22.00 L 18.00 21.00 L 17.00 20.00 L 17.00 19.00 L 16.00 18.00 L 16.00 17.00 L 14.00 15.00 L 14.00 9.00 L 16.00 7.00 L 17.00 7.00 L 18.00 6.00 Z" fill="#333333" fill-rule="evenodd"/>
<path d="M 27.00 32.00 L 25.00 32.00 L 25.00 33.00 L 26.00 34.00 L 27.00 33.00 Z M 12.00 32.00 L 12.00 33.00 L 14.00 33.00 L 14.00 32.00 Z M 35.00 16.00 L 34.00 15.00 L 33.00 16.00 L 33.00 17.00 L 35.00 17.00 Z M 6.00 16.00 L 5.00 15.00 L 4.00 16.00 L 4.00 17.00 L 6.00 17.00 Z M 17.00 12.00 L 16.00 13.00 L 18.00 15.00 L 18.00 18.00 L 19.00 19.00 L 19.00 21.00 L 20.00 21.00 L 19.00 20.00 L 21.00 18.00 L 21.00 15.00 L 23.00 13.00 L 22.00 12.00 L 21.00 12.00 L 22.00 13.00 L 21.00 14.00 L 20.00 14.00 L 19.00 13.00 L 19.00 12.00 Z" fill="#f06aa6" fill-rule="evenodd"/>
<path d="M 14.00 27.00 L 14.00 28.00 Z M 30.00 26.00 L 29.00 27.00 Z M 19.00 26.00 L 20.00 27.00 L 19.00 28.00 L 21.00 28.00 Z M 33.00 22.00 L 34.00 22.00 Z M 6.00 22.00 L 5.00 22.00 L 4.00 23.00 L 5.00 24.00 L 5.00 23.00 Z M 25.00 20.00 L 26.00 21.00 L 26.00 23.00 L 26.00 21.00 Z M 13.00 19.00 L 13.00 20.00 Z M 30.00 16.00 L 30.00 17.00 Z M 9.00 16.00 L 8.00 16.00 L 8.00 17.00 Z M 13.00 12.00 L 13.00 14.00 Z M 30.00 6.00 L 29.00 7.00 L 31.00 9.00 L 31.00 8.00 L 32.00 7.00 L 31.00 6.00 Z M 29.00 7.00 L 30.00 6.00 L 31.00 7.00 L 30.00 8.00 Z M 8.00 6.00 L 7.00 7.00 L 7.00 8.00 L 9.00 10.00 L 8.00 9.00 L 10.00 7.00 L 9.00 6.00 Z" fill="#78cbe6" fill-rule="evenodd"/>
</svg>