<svg xmlns="http://www.w3.org/2000/svg" width="40" height="40" viewBox="0 0 40 40" fill="none">
<path d="M 9.00 14.00 L 8.00 15.00 Z M 17.00 4.00 L 16.00 5.00 L 15.00 5.00 L 14.00 6.00 L 13.00 6.00 L 12.00 7.00 L 12.00 8.00 L 11.00 9.00 L 11.00 13.00 L 12.00 14.00 L 12.00 15.00 L 14.00 17.00 L 16.00 17.00 L 17.00 18.00 L 18.00 18.00 L 19.00 19.00 L 19.00 21.00 L 18.00 22.00 L 17.00 21.00 L 16.00 21.00 L 15.00 22.00 L 15.00 23.00 L 17.00 25.00 L 17.00 26.00 L 18.00 27.00 L 18.00 28.00 L 20.00 30.00 L 21.00 30.00 L 24.00 33.00 L 24.00 35.00 L 24.00 32.00 L 22.00 30.00 L 21.00 30.00 L 19.00 28.00 L 19.00 27.00 L 17.00 25.00 L 17.00 24.00 L 16.00 24.00 L 15.00 23.00 L 16.00 22.00 L 18.00 22.00 L 20.00 24.00 L 20.00 20.00 L 19.00 19.00 L 19.00 18.00 L 18.00 17.00 L 18.00 14.00 L 17.00 13.00 L 17.00 12.00 L 18.00 11.00 L 20.00 13.00 L 20.00 16.00 L 21.00 17.00 L 21.00 18.00 L 22.00 19.00 L 22.00 18.00 L 23.00 17.00 L 24.00 18.00 L 24.00 19.00 L 25.00 19.00 L 26.00 18.00 L 27.00 19.00 L 27.00 18.00 L 28.00 17.00 L 29.00 18.00 L 29.00 21.00 L 30.00 22.00 L 30.00 29.00 L 31.00 30.00 L 31.00 32.00 L 32.00 32.00 L 32.00 31.00 L 31.00 30.00 L 31.00 23.00 L 30.00 22.00 L 30.00 19.00 L 29.00 18.00 L 29.00 17.00 L 27.00 17.00 L 26.00 16.00 L 24.00 16.00 L 23.00 15.00 L 23.00 14.00 L 24.00 13.00 L 24.00 8.00 L 21.00 5.00 L 19.00 5.00 L 18.00 4.00 Z M 24.00 18.00 L 25.00 17.00 L 26.00 18.00 L 25.00 19.00 Z M 20.00 13.00 L 21.00 12.00 L 23.00 14.00 L 23.00 15.00 L 22.00 16.00 L 20.00 14.00 Z M 20.00 5.00 L 23.00 8.00 L 22.00 9.00 L 23.00 9.00 L 24.00 10.00 L 23.00 11.00 L 24.00 12.00 L 23.00 13.00 L 22.00 13.00 L 21.00 12.00 L 20.00 12.00 L 18.00 10.00 L 16.00 12.00 L 17.00 13.00 L 16.00 14.00 L 17.00 14.00 L 18.00 15.00 L 18.00 16.00 L 17.00 17.00 L 16.00 17.00 L 15.00 16.00 L 14.00 16.00 L 11.00 13.00 L 12.00 12.00 L 13.00 12.00 L 13.00 11.00 L 12.00 10.00 L 12.00 8.00 L 14.00 6.00 L 15.00 6.00 L 16.00 5.00 Z" fill="#333333" fill-rule="evenodd"/>
<path d="M 7.00 10.00 L 9.00 10.00 Z M 16.00 7.00 L 14.00 9.00 L 14.00 14.00 L 15.00 14.00 L 16.00 15.00 L 17.00 15.00 L 16.00 15.00 L 14.00 13.00 L 14.00 10.00 L 17.00 7.00 L 19.00 7.00 L 21.00 9.00 L 21.00 11.00 L 22.00 12.00 L 21.00 13.00 L 21.00 14.00 L 21.00 13.00 L 22.00 12.00 L 22.00 10.00 L 21.00 9.00 L 21.00 8.00 L 20.00 7.00 Z" fill="#f06aa6" fill-rule="evenodd"/>
<path d="M 12.00 13.00 L 13.00 14.00 Z M 9.00 5.00 L 9.00 6.00 L 10.00 6.00 Z" fill="#78cbe6" fill-rule="evenodd"/>
</svg>